<svg xmlns="http://www.w3.org/2000/svg" xmlns:xlink="http://www.w3.org/1999/xlink" width="69.084" height="66.678" viewBox="0 0 69.084 66.678">
  <defs>
    <filter id="Path_8734" x="0" y="9.711" width="69.084" height="56.967" filterUnits="userSpaceOnUse">
      <feOffset dy="3" input="SourceAlpha"/>
      <feGaussianBlur stdDeviation="3" result="blur"/>
      <feFlood flood-opacity="0.161"/>
      <feComposite operator="in" in2="blur"/>
      <feComposite in="SourceGraphic"/>
    </filter>
    <filter id="Path_8735" x="13.337" y="11.257" width="44.469" height="38.153" filterUnits="userSpaceOnUse">
      <feOffset dy="3" input="SourceAlpha"/>
      <feGaussianBlur stdDeviation="3" result="blur-2"/>
      <feFlood flood-opacity="0.161"/>
      <feComposite operator="in" in2="blur-2"/>
      <feComposite in="SourceGraphic"/>
    </filter>
    <filter id="Path_8736" x="24.044" y="22.485" width="42.371" height="25.913" filterUnits="userSpaceOnUse">
      <feOffset dy="3" input="SourceAlpha"/>
      <feGaussianBlur stdDeviation="3" result="blur-3"/>
      <feFlood flood-opacity="0.161"/>
      <feComposite operator="in" in2="blur-3"/>
      <feComposite in="SourceGraphic"/>
    </filter>
    <filter id="Path_8737" x="1.513" y="26.534" width="44.233" height="28.952" filterUnits="userSpaceOnUse">
      <feOffset dy="3" input="SourceAlpha"/>
      <feGaussianBlur stdDeviation="3" result="blur-4"/>
      <feFlood flood-opacity="0.161"/>
      <feComposite operator="in" in2="blur-4"/>
      <feComposite in="SourceGraphic"/>
    </filter>
    <filter id="Path_8738" x="23.531" y="23.447" width="44.018" height="27.961" filterUnits="userSpaceOnUse">
      <feOffset dy="3" input="SourceAlpha"/>
      <feGaussianBlur stdDeviation="3" result="blur-5"/>
      <feFlood flood-opacity="0.161"/>
      <feComposite operator="in" in2="blur-5"/>
      <feComposite in="SourceGraphic"/>
    </filter>
    <filter id="Path_8739" x="6.902" y="8.021" width="21.784" height="22.225" filterUnits="userSpaceOnUse">
      <feOffset dy="3" input="SourceAlpha"/>
      <feGaussianBlur stdDeviation="3" result="blur-6"/>
      <feFlood flood-opacity="0.161"/>
      <feComposite operator="in" in2="blur-6"/>
      <feComposite in="SourceGraphic"/>
    </filter>
    <filter id="Path_8740" x="44.767" y="15.83" width="22.54" height="21.247" filterUnits="userSpaceOnUse">
      <feOffset dy="3" input="SourceAlpha"/>
      <feGaussianBlur stdDeviation="3" result="blur-7"/>
      <feFlood flood-opacity="0.161"/>
      <feComposite operator="in" in2="blur-7"/>
      <feComposite in="SourceGraphic"/>
    </filter>
    <filter id="Path_8741" x="15.043" y="2.478" width="20.716" height="22.801" filterUnits="userSpaceOnUse">
      <feOffset dy="3" input="SourceAlpha"/>
      <feGaussianBlur stdDeviation="3" result="blur-8"/>
      <feFlood flood-opacity="0.161"/>
      <feComposite operator="in" in2="blur-8"/>
      <feComposite in="SourceGraphic"/>
    </filter>
    <filter id="Path_8742" x="40.318" y="8.044" width="21.77" height="22.198" filterUnits="userSpaceOnUse">
      <feOffset dy="3" input="SourceAlpha"/>
      <feGaussianBlur stdDeviation="3" result="blur-9"/>
      <feFlood flood-opacity="0.161"/>
      <feComposite operator="in" in2="blur-9"/>
      <feComposite in="SourceGraphic"/>
    </filter>
    <filter id="Path_8743" x="1.685" y="15.826" width="22.551" height="21.253" filterUnits="userSpaceOnUse">
      <feOffset dy="3" input="SourceAlpha"/>
      <feGaussianBlur stdDeviation="3" result="blur-10"/>
      <feFlood flood-opacity="0.161"/>
      <feComposite operator="in" in2="blur-10"/>
      <feComposite in="SourceGraphic"/>
    </filter>
    <filter id="Path_8744" x="33.25" y="2.479" width="20.712" height="22.806" filterUnits="userSpaceOnUse">
      <feOffset dy="3" input="SourceAlpha"/>
      <feGaussianBlur stdDeviation="3" result="blur-11"/>
      <feFlood flood-opacity="0.161"/>
      <feComposite operator="in" in2="blur-11"/>
      <feComposite in="SourceGraphic"/>
    </filter>
    <filter id="Path_8745" x="24.74" y="0" width="19.518" height="23.008" filterUnits="userSpaceOnUse">
      <feOffset dy="3" input="SourceAlpha"/>
      <feGaussianBlur stdDeviation="3" result="blur-12"/>
      <feFlood flood-opacity="0.161"/>
      <feComposite operator="in" in2="blur-12"/>
      <feComposite in="SourceGraphic"/>
    </filter>
    <filter id="Path_8746" x="12.428" y="32.903" width="47.091" height="32.261" filterUnits="userSpaceOnUse">
      <feOffset dy="3" input="SourceAlpha"/>
      <feGaussianBlur stdDeviation="3" result="blur-13"/>
      <feFlood flood-opacity="0.161"/>
      <feComposite operator="in" in2="blur-13"/>
      <feComposite in="SourceGraphic"/>
    </filter>
    <filter id="Path_8747" x="5.329" y="26.371" width="41.78" height="25.753" filterUnits="userSpaceOnUse">
      <feOffset dy="3" input="SourceAlpha"/>
      <feGaussianBlur stdDeviation="3" result="blur-14"/>
      <feFlood flood-opacity="0.161"/>
      <feComposite operator="in" in2="blur-14"/>
      <feComposite in="SourceGraphic"/>
    </filter>
    <filter id="Path_8748" x="10.686" y="11.392" width="30.858" height="34.394" filterUnits="userSpaceOnUse">
      <feOffset dy="3" input="SourceAlpha"/>
      <feGaussianBlur stdDeviation="3" result="blur-15"/>
      <feFlood flood-opacity="0.161"/>
      <feComposite operator="in" in2="blur-15"/>
      <feComposite in="SourceGraphic"/>
    </filter>
  </defs>
  <g id="Group_7173" data-name="Group 7173" transform="translate(3579.068 -1054.195)" opacity="0.8">
    <g transform="matrix(1, 0, 0, 1, -3579.07, 1054.19)" filter="url(#Path_8734)">
      <path id="Path_8734-2" data-name="Path 8734" d="M-3560.567,1185.028a.787.787,0,0,1-.883.63,16.139,16.139,0,0,1-3.471-.16,6.525,6.525,0,0,1-5.021-5.086c-.03-.118.034-.276-.126-.349v-2c.182-.1.125-.294.161-.439a6.589,6.589,0,0,1,8.656-4.727c.107.037.216.072.363.122a15.68,15.68,0,0,1,.8-4.365c2.182-6.078,6.416-9.856,12.779-11.026a15.749,15.749,0,0,1,13.1,3.436c.515.409.56.647.274,1.241a.788.788,0,0,1-1.13.162c-.3-.178-.553-.425-.837-.626a14.352,14.352,0,0,0-8.471-2.794,10.959,10.959,0,0,0-2.086.1,14.377,14.377,0,0,0-7.961,3.695A14.585,14.585,0,0,0-3559,1171.1c-.144.736-.155,1.486-.261,2.225a.963.963,0,0,0,.337.892,5.123,5.123,0,0,1,.717.761.386.386,0,0,0,.6.1,5.32,5.32,0,0,1,1.138-.5,4.554,4.554,0,0,1,5.752,3.813c.065.423.22.57.635.545.48-.029.963-.015,1.444,0,.3.007.464-.089.5-.407a3.692,3.692,0,0,1,3.862-3.1c1.344.05,2.69.011,4.035.009.6,0,.6,0,.691-.576a4.829,4.829,0,0,1,5.009-4.208,4.228,4.228,0,0,1,2.214.676.509.509,0,0,0,.825-.159,3.877,3.877,0,0,1,.848-.907.6.6,0,0,0,.167-.755,14.648,14.648,0,0,0-2.214-4.437,2.83,2.83,0,0,1-.5-.8c-.111-.351-.143-.693.273-.89.608-.3.844-.238,1.266.307a15.954,15.954,0,0,1,2.665,5.118c.109.353.212.408.562.277a6.794,6.794,0,0,1,6.227.632c.53.326.6.567.4,1.166-.121.417-.449.44-.8.409a1.625,1.625,0,0,1-.635-.273,5.3,5.3,0,0,0-7.314,1.919c-.112.184-.216.374-.341.55a.849.849,0,0,1-1.4.188c-.166-.138-.309-.3-.468-.447a2.947,2.947,0,0,0-3.423-.435,3.045,3.045,0,0,0-1.578,3.082c.134.953-.188,1.324-1.163,1.326-1.792,0-3.585,0-5.378,0a2.069,2.069,0,0,0-1.653.665c-.173.28-.488.577-.327.892s.575.153.876.154c3.322.009,6.644.017,9.966,0a8.619,8.619,0,0,1,5.44,1.755,1.074,1.074,0,0,0,.691.24c1.31-.029,2.621.073,3.931-.083a5.284,5.284,0,0,0,4.6-4.214,5.157,5.157,0,0,0-.365-3.208,1.411,1.411,0,0,1-.14-.964c.068-.238.189-.428.477-.426.651-.112.834-.022,1.112.544a6.969,6.969,0,0,1-6.058,9.972c-.863.03-1.728,0-2.582,0-.086.181.053.267.115.371a8.98,8.98,0,0,1-4.678,12.956,9.291,9.291,0,0,1-2.94.449q-9.6.005-19.2,0a4.062,4.062,0,0,1-4.128-3.73,4.046,4.046,0,0,1,3.18-4.283,16.035,16.035,0,0,1,2.984-.1c.083,0,.166,0,.249,0,.7,0,.7,0,.742-.721a7.28,7.28,0,0,1,.421-1.822h-4.321c-.731,0-1.463-.011-2.194,0a.848.848,0,0,1-.914-.535c-.188-.725.115-1.1.935-1.11,1.826-.015,3.653,0,5.479-.005a3.287,3.287,0,0,1,.349,0,3.693,3.693,0,0,0,2.668-.777,5.246,5.246,0,0,1,5.658-.366c.386.189.591.161.8-.213a5.869,5.869,0,0,1,.706-.963,7.193,7.193,0,0,1,1.09-.958.747.747,0,0,0-.407-.033q-4.759,0-9.518,0c-1.036,0-1.349-.36-1.222-1.374a2.659,2.659,0,0,0-1.5-2.787,2.665,2.665,0,0,0-3.141.408c-1.045.97-1.385.921-2.1-.3a4.721,4.721,0,0,0-5.207-2.358,4.8,4.8,0,0,0-3.993,4.735,4.963,4.963,0,0,0,3.971,4.887,18.082,18.082,0,0,0,2.88.109,1.092,1.092,0,0,1,.83.255A.586.586,0,0,1-3560.567,1185.028Z" transform="translate(3579.07 -1141.64)"/>
    </g>
    <g transform="matrix(1, 0, 0, 1, -3579.07, 1054.19)" filter="url(#Path_8735)">
      <path id="Path_8735-2" data-name="Path 8735" d="M-3426.425,1172.957a14.571,14.571,0,0,1,11.262,3.138c.583.458.777.484,1.325.138a8.533,8.533,0,0,1,1.014,1.077.891.891,0,0,0,.073,1.253,14.483,14.483,0,0,1,2.537,4.977.552.552,0,0,1-.2.719,4.045,4.045,0,0,0-1.014,1.09c-.2.308-.333.365-.67.141a4.686,4.686,0,0,0-7.09,2.7,3.292,3.292,0,0,0-.137.882c.007.347-.1.439-.446.435-1.5-.021-2.991-.011-4.486-.009a3.451,3.451,0,0,0-3.666,3.183c-.034.246-.128.3-.345.294-.714-.009-1.429-.008-2.144,0-.2,0-.3-.042-.307-.272a4.45,4.45,0,0,0-5.568-4.1.555.555,0,0,1-.1.006c-.307-.023-.234-.273-.239-.442a15.661,15.661,0,0,1,1.192-6.568,15.272,15.272,0,0,1,3.525-5.2A14.3,14.3,0,0,1-3426.425,1172.957Z" transform="translate(3458.97 -1155.56)" fill="#fcc102"/>
    </g>
    <g transform="matrix(1, 0, 0, 1, -3579.07, 1054.19)" filter="url(#Path_8736)">
      <path id="Path_8736-2" data-name="Path 8736" d="M-3329.516,1292.8a1.907,1.907,0,0,1,1.625-.694q2.792,0,5.583,0c.81,0,1.071-.316.946-1.126a3.138,3.138,0,0,1,1.692-3.31,3.125,3.125,0,0,1,3.669.6c.07.071.134.148.2.221.523.567,1.083.5,1.418-.192a5.284,5.284,0,0,1,2.984-2.776,5.318,5.318,0,0,1,4.867.481.826.826,0,0,0,1.237-.1l.115.2a5.984,5.984,0,0,1-.8,3.684,6.163,6.163,0,0,1-5.628,3.24c-5.712.022-11.424.01-17.136,0C-3329,1293.039-3329.352,1293.187-3329.516,1292.8Z" transform="translate(3362.56 -1256.67)" fill="#9fc9fd"/>
    </g>
    <g transform="matrix(1, 0, 0, 1, -3579.07, 1054.19)" filter="url(#Path_8737)">
      <path id="Path_8737-2" data-name="Path 8737" d="M-3546.944,1336.517c-.048-.661-.272-.861-.936-.88a13.972,13.972,0,0,1-3.322-.188,5.089,5.089,0,0,1-3.729-5,4.978,4.978,0,0,1,3.924-4.778.677.677,0,0,1,.148,0c.178.368-.024.718-.073,1.067a5.649,5.649,0,0,0,5.525,6.361c5.283.008,10.567,0,15.85.006.29,0,.6-.08.856.152a9.843,9.843,0,0,0-.93,1.347c-.1.2-.2.2-.377.086a5.5,5.5,0,0,0-6.74.795.672.672,0,0,1-.546.157q-3.565,0-7.13,0c-.752,0-.986.24-.967.976A1.963,1.963,0,0,0-3546.944,1336.517Z" transform="translate(3565.44 -1293.13)" fill="#9fc9fd"/>
    </g>
    <g transform="matrix(1, 0, 0, 1, -3579.07, 1054.19)" filter="url(#Path_8738)">
      <path id="Path_8738-2" data-name="Path 8738" d="M-3334.13,1301.47c.152.152.345.089.521.089,5.894,0,11.787.039,17.68-.012a6.114,6.114,0,0,0,5.96-5.411,4.146,4.146,0,0,1,.176-1.354l.889.929c-.475.4-.516.623-.228,1.254a5.446,5.446,0,0,1-3.907,7.649,23.711,23.711,0,0,1-3.181.118,3.95,3.95,0,0,1-2.723-.741,7.059,7.059,0,0,0-4.137-1.232c-3.637-.029-7.274-.015-10.911-.017-.72,0-.776-.081-.493-.746A1.1,1.1,0,0,1-3334.13,1301.47Z" transform="translate(3367.17 -1265.33)" fill="#80b7fc"/>
    </g>
    <g transform="matrix(1, 0, 0, 1, -3579.07, 1054.19)" filter="url(#Path_8739)">
      <path id="Path_8739-2" data-name="Path 8739" d="M-3497.233,1143.855a.761.761,0,0,1-.435.731.658.658,0,0,1-.825-.137c-.8-.928-1.6-1.865-2.365-2.823a.664.664,0,0,1,.135-.978.672.672,0,0,1,.989.029c.813.919,1.59,1.87,2.377,2.813A.519.519,0,0,1-3497.233,1143.855Z" transform="translate(3516.92 -1126.42)"/>
    </g>
    <g transform="matrix(1, 0, 0, 1, -3579.07, 1054.19)" filter="url(#Path_8740)">
      <path id="Path_8740-2" data-name="Path 8740" d="M-3117.645,1219.379a.722.722,0,0,1-.42.625c-.975.564-1.947,1.134-2.928,1.687a.749.749,0,0,1-1.081-.247.733.733,0,0,1,.326-1.055c.969-.574,1.942-1.143,2.927-1.69A.747.747,0,0,1-3117.645,1219.379Z" transform="translate(3175.95 -1196.74)"/>
    </g>
    <g transform="matrix(1, 0, 0, 1, -3579.07, 1054.19)" filter="url(#Path_8741)">
      <path id="Path_8741-2" data-name="Path 8741" d="M-3418.811,1084.989a.686.686,0,0,1,.7.46c.417,1.113.831,2.227,1.224,3.349a.725.725,0,0,1-.444.931.7.7,0,0,1-.948-.388c-.436-1.123-.855-2.253-1.239-3.4A.725.725,0,0,1-3418.811,1084.989Z" transform="translate(3443.6 -1076.51)"/>
    </g>
    <g transform="matrix(1, 0, 0, 1, -3579.07, 1054.19)" filter="url(#Path_8742)">
      <path id="Path_8742-2" data-name="Path 8742" d="M-3162.922,1141.345a.878.878,0,0,1-.238.641c-.7.84-1.4,1.682-2.115,2.515a.75.75,0,0,1-1.129.185.741.741,0,0,1-.042-1.14c.707-.859,1.428-1.706,2.14-2.56a.767.767,0,0,1,.891-.266A.714.714,0,0,1-3162.922,1141.345Z" transform="translate(3216.01 -1126.63)"/>
    </g>
    <g transform="matrix(1, 0, 0, 1, -3579.07, 1054.19)" filter="url(#Path_8743)">
      <path id="Path_8743-2" data-name="Path 8743" d="M-3549.472,1221.784a.881.881,0,0,1-.454-.172c-.935-.537-1.87-1.074-2.8-1.62a.75.75,0,0,1-.383-1.078.762.762,0,0,1,1.123-.236c.967.547,1.926,1.108,2.887,1.665a.734.734,0,0,1,.389.922A.723.723,0,0,1-3549.472,1221.784Z" transform="translate(3563.9 -1196.71)"/>
    </g>
    <g transform="matrix(1, 0, 0, 1, -3579.07, 1054.19)" filter="url(#Path_8744)">
      <path id="Path_8744-2" data-name="Path 8744" d="M-3235.443,1085a.7.7,0,0,1,.714.9q-.574,1.764-1.261,3.49a.654.654,0,0,1-.92.344.67.67,0,0,1-.452-.874c.393-1.156.814-2.3,1.244-3.446A.657.657,0,0,1-3235.443,1085Z" transform="translate(3279.66 -1076.52)"/>
    </g>
    <g transform="matrix(1, 0, 0, 1, -3579.07, 1054.19)" filter="url(#Path_8745)">
      <path id="Path_8745-2" data-name="Path 8745" d="M-3321.033,1062.688c0,.564.008,1.129,0,1.693a.73.73,0,0,1-.734.821.75.75,0,0,1-.772-.84q-.013-1.668,0-3.337a.762.762,0,0,1,.741-.83.764.764,0,0,1,.765.849C-3321.027,1061.592-3321.034,1062.14-3321.033,1062.688Z" transform="translate(3356.29 -1054.19)"/>
    </g>
    <g transform="matrix(1, 0, 0, 1, -3579.07, 1054.19)" filter="url(#Path_8746)">
      <path id="Path_8746-2" data-name="Path 8746" d="M-3433.357,1403.639c-3.224,0-6.447.006-9.671,0a2.538,2.538,0,0,1-2.661-2.972,2.482,2.482,0,0,1,2.373-2.095c1.229-.026,2.459-.008,3.689-.01,1.029,0,1.253-.258,1.11-1.256a3.685,3.685,0,0,1,1.72-3.855,3.833,3.833,0,0,1,4.319-.1,5.993,5.993,0,0,1,.739.587.753.753,0,0,0,1.291-.281c1.055-2.75,3.245-3.929,5.991-4.224a7.215,7.215,0,0,1,5.741,1.725,6.018,6.018,0,0,1,2.036,4.089,7.449,7.449,0,0,1-2.625,6.856,7.145,7.145,0,0,1-4.729,1.535Q-3428.7,1403.645-3433.357,1403.639Z" transform="translate(3467.15 -1350.48)" fill="#e5f0fe"/>
    </g>
    <g transform="matrix(1, 0, 0, 1, -3579.07, 1054.19)" filter="url(#Path_8747)">
      <path id="Path_8747-2" data-name="Path 8747" d="M-3494.335,1331.788l-16.8-.006a5.836,5.836,0,0,1-5.582-5.04,7.261,7.261,0,0,1,.221-2.54,4.806,4.806,0,0,1,5.389,2.416c.064.116.121.236.183.353.36.685.907.764,1.415.178a2.853,2.853,0,0,1,2.41-1.055,2.9,2.9,0,0,1,2.724,3.4c-.13.741.164,1.089.935,1.09q4.956,0,9.911,0h.554Z" transform="translate(3531.08 -1291.66)" fill="#bfdafe"/>
    </g>
    <g transform="matrix(1, 0, 0, 1, -3579.07, 1054.19)" filter="url(#Path_8748)">
      <path id="Path_8748-2" data-name="Path 8748" d="M-3450.3,1174.173c-.165.241-.455.262-.688.364a15.33,15.33,0,0,0-5.053,3.522,15.217,15.217,0,0,0-4.051,7.911,16.248,16.248,0,0,0-.282,3.348c.005.175-.062.371.114.509a5.589,5.589,0,0,0-1.276.65c-.173.14-.271.113-.389-.065a5.456,5.456,0,0,0-1.035-1.14.546.546,0,0,1-.2-.475,14.842,14.842,0,0,1,10.577-14.148A10.827,10.827,0,0,1-3450.3,1174.173Z" transform="translate(3482.84 -1156.78)" fill="#efa60a"/>
    </g>
  </g>
</svg>
