<svg xmlns="http://www.w3.org/2000/svg" xmlns:xlink="http://www.w3.org/1999/xlink" width="66.777" height="62.405" viewBox="0 0 66.777 62.405">
  <defs>
    <filter id="Path_8749" x="0" y="1.562" width="66.767" height="60.843" filterUnits="userSpaceOnUse">
      <feOffset dy="3" input="SourceAlpha"/>
      <feGaussianBlur stdDeviation="3" result="blur"/>
      <feFlood flood-opacity="0.161"/>
      <feComposite operator="in" in2="blur"/>
      <feComposite in="SourceGraphic"/>
    </filter>
    <filter id="Path_8750" x="0" y="9.761" width="26.466" height="26.109" filterUnits="userSpaceOnUse">
      <feOffset dy="3" input="SourceAlpha"/>
      <feGaussianBlur stdDeviation="3" result="blur-2"/>
      <feFlood flood-opacity="0.161"/>
      <feComposite operator="in" in2="blur-2"/>
      <feComposite in="SourceGraphic"/>
    </filter>
    <filter id="Path_8751" x="1.431" y="25.049" width="40.322" height="36.859" filterUnits="userSpaceOnUse">
      <feOffset dy="3" input="SourceAlpha"/>
      <feGaussianBlur stdDeviation="3" result="blur-3"/>
      <feFlood flood-opacity="0.161"/>
      <feComposite operator="in" in2="blur-3"/>
      <feComposite in="SourceGraphic"/>
    </filter>
    <filter id="Path_8752" x="13.784" y="2.971" width="50.286" height="51.922" filterUnits="userSpaceOnUse">
      <feOffset dy="3" input="SourceAlpha"/>
      <feGaussianBlur stdDeviation="3" result="blur-4"/>
      <feFlood flood-opacity="0.161"/>
      <feComposite operator="in" in2="blur-4"/>
      <feComposite in="SourceGraphic"/>
    </filter>
    <filter id="Path_8753" x="29.022" y="9.7" width="32.844" height="30.489" filterUnits="userSpaceOnUse">
      <feOffset dy="3" input="SourceAlpha"/>
      <feGaussianBlur stdDeviation="3" result="blur-5"/>
      <feFlood flood-opacity="0.161"/>
      <feComposite operator="in" in2="blur-5"/>
      <feComposite in="SourceGraphic"/>
    </filter>
    <filter id="Path_8754" x="27.71" y="8.382" width="39.066" height="32.406" filterUnits="userSpaceOnUse">
      <feOffset dy="3" input="SourceAlpha"/>
      <feGaussianBlur stdDeviation="3" result="blur-6"/>
      <feFlood flood-opacity="0.161"/>
      <feComposite operator="in" in2="blur-6"/>
      <feComposite in="SourceGraphic"/>
    </filter>
    <filter id="Path_8755" x="38.308" y="36.795" width="25.644" height="25.334" filterUnits="userSpaceOnUse">
      <feOffset dy="3" input="SourceAlpha"/>
      <feGaussianBlur stdDeviation="3" result="blur-7"/>
      <feFlood flood-opacity="0.161"/>
      <feComposite operator="in" in2="blur-7"/>
      <feComposite in="SourceGraphic"/>
    </filter>
    <filter id="Path_8756" x="9.241" y="0" width="24.718" height="24.48" filterUnits="userSpaceOnUse">
      <feOffset dy="3" input="SourceAlpha"/>
      <feGaussianBlur stdDeviation="3" result="blur-8"/>
      <feFlood flood-opacity="0.161"/>
      <feComposite operator="in" in2="blur-8"/>
      <feComposite in="SourceGraphic"/>
    </filter>
    <filter id="Path_8757" x="17.338" y="30.086" width="29.966" height="30.873" filterUnits="userSpaceOnUse">
      <feOffset dy="3" input="SourceAlpha"/>
      <feGaussianBlur stdDeviation="3" result="blur-9"/>
      <feFlood flood-opacity="0.161"/>
      <feComposite operator="in" in2="blur-9"/>
      <feComposite in="SourceGraphic"/>
    </filter>
    <filter id="Path_8758" x="13.921" y="21.989" width="36.48" height="32.979" filterUnits="userSpaceOnUse">
      <feOffset dy="3" input="SourceAlpha"/>
      <feGaussianBlur stdDeviation="3" result="blur-10"/>
      <feFlood flood-opacity="0.161"/>
      <feComposite operator="in" in2="blur-10"/>
      <feComposite in="SourceGraphic"/>
    </filter>
    <filter id="Path_8759" x="2.273" y="12.089" width="21.91" height="21.745" filterUnits="userSpaceOnUse">
      <feOffset dy="3" input="SourceAlpha"/>
      <feGaussianBlur stdDeviation="3" result="blur-11"/>
      <feFlood flood-opacity="0.161"/>
      <feComposite operator="in" in2="blur-11"/>
      <feComposite in="SourceGraphic"/>
    </filter>
    <filter id="Path_8760" x="40.01" y="13.222" width="25.333" height="26.131" filterUnits="userSpaceOnUse">
      <feOffset dy="3" input="SourceAlpha"/>
      <feGaussianBlur stdDeviation="3" result="blur-12"/>
      <feFlood flood-opacity="0.161"/>
      <feComposite operator="in" in2="blur-12"/>
      <feComposite in="SourceGraphic"/>
    </filter>
    <filter id="Path_8761" x="40.528" y="39.15" width="21.136" height="20.953" filterUnits="userSpaceOnUse">
      <feOffset dy="3" input="SourceAlpha"/>
      <feGaussianBlur stdDeviation="3" result="blur-13"/>
      <feFlood flood-opacity="0.161"/>
      <feComposite operator="in" in2="blur-13"/>
      <feComposite in="SourceGraphic"/>
    </filter>
    <filter id="Path_8762" x="11.546" y="2.311" width="20.216" height="20.145" filterUnits="userSpaceOnUse">
      <feOffset dy="3" input="SourceAlpha"/>
      <feGaussianBlur stdDeviation="3" result="blur-14"/>
      <feFlood flood-opacity="0.161"/>
      <feComposite operator="in" in2="blur-14"/>
      <feComposite in="SourceGraphic"/>
    </filter>
  </defs>
  <g id="Adhkar_2_icons_" data-name="Adhkar 2 icons " transform="translate(2781.5 -1645.063)" opacity="0.8">
    <g transform="matrix(1, 0, 0, 1, -2781.5, 1645.06)" filter="url(#Path_8749)">
      <path id="Path_8749-2" data-name="Path 8749" d="M-2757.234,1673.219c-.417-.473-.441-.679-.091-1.218a18.122,18.122,0,0,1,13.531-8.5,17.931,17.931,0,0,1,10.879,2.116c.537.287.691.715.419,1.118a.823.823,0,0,1-.938.277,11.794,11.794,0,0,0-4.49.109,12.093,12.093,0,0,0-9.441,10.373,11.992,11.992,0,0,0,10.39,13.4c4.911.627,8.828-1.255,11.694-5.3.064-.091.118-.188.181-.279a.739.739,0,0,1,.97-.348.737.737,0,0,1,.356.933q-2.851,10.823-13.642,13.788a14.336,14.336,0,0,1-3.906.5c-.324,0-.461.059-.492.428a6,6,0,0,1-6.02,5.568c-3.714.014-7.428,0-11.142.01a.854.854,0,0,1-.948-.673.68.68,0,0,1,.56-.862,2.78,2.78,0,0,1,.707-.047c1.136,0,2.272-.005,3.408,0,2.568.03,5.139.081,7.7-.013a4.4,4.4,0,0,0,4.174-4.413,4.423,4.423,0,0,0-2.5-4.062c-.78-.427-.858-.551-.707-1.427a2.131,2.131,0,0,0-2.557-2.615c-.9.239-1.149.131-1.562-.685a7.653,7.653,0,0,0-6.272-4.385,7.451,7.451,0,0,0-5.731,1.714,7.665,7.665,0,0,0-2.915,5.91.9.9,0,0,1-.9,1.016,6.188,6.188,0,0,0-2.012.535,4.506,4.506,0,0,0-2.4,4.364,4.484,4.484,0,0,0,3.424,3.938,5.555,5.555,0,0,0,1.274.143c1.191-.008,2.381-.015,3.572,0,.717.011,1.009.4.836,1.074a.887.887,0,0,1-.9.481,45.938,45.938,0,0,1-4.647-.09,6,6,0,0,1-4.957-4.5c-.039-.155,0-.35-.175-.459v-1.905c.19-.228.161-.527.248-.788a5.969,5.969,0,0,1,4.748-4.226c.274-.056.341-.147.381-.407a9.292,9.292,0,0,1,7.1-8.118c.245-.07.255-.172.212-.4a18.193,18.193,0,0,1,.727-9.646c.233-.651.362-.739,1.043-.7.4.018.477.31.515.62a1.933,1.933,0,0,1-.173.879,16.652,16.652,0,0,0-.767,7.267c.006.367.107.721.148,1.083s.233.513.6.5a8.43,8.43,0,0,1,3.26.58,9.4,9.4,0,0,1,4.856,4.021.829.829,0,0,0,.843.453,3.767,3.767,0,0,1,3.9,3.844.8.8,0,0,0,.426.822,5.838,5.838,0,0,1,2.431,3.136c.133.364.314.515.691.481a7.069,7.069,0,0,0,1.185-.058,17.006,17.006,0,0,0,9.071-3.729,17.006,17.006,0,0,0,4.343-5.364,13.544,13.544,0,0,1-16,.943,13.534,13.534,0,0,1-5.96-14.542,13.616,13.616,0,0,1,11.169-10.421,15.016,15.016,0,0,0-3.943-.563,16.8,16.8,0,0,0-4.195.479,17,17,0,0,0-8.178,4.633,15.649,15.649,0,0,0-2.149,2.723,1.354,1.354,0,0,1-.594.6C-2756.8,1673.434-2757.042,1673.476-2757.234,1673.219Z" transform="translate(2781.5 -1655.8)"/>
    </g>
    <g transform="matrix(1, 0, 0, 1, -2781.5, 1645.06)" filter="url(#Path_8750)">
      <path id="Path_8750-2" data-name="Path 8750" d="M-2772.5,1730.906a1.12,1.12,0,0,1,.963-.488c.093,0,.188-.055.279-.048a1.911,1.911,0,0,0,2.114-1.573c.131-.4.3-.88.866-.887s.685.482.889.865a2,2,0,0,1,.206.426,1.406,1.406,0,0,0,1.551,1.128,4.786,4.786,0,0,1,.942.124.706.706,0,0,1,.4,1.25c-.392.415-.805.811-1.225,1.2a.533.533,0,0,0-.173.582c.12.541.19,1.092.288,1.638a.727.727,0,0,1-.288.755.674.674,0,0,1-.762.045c-.508-.259-1.016-.517-1.509-.8a.546.546,0,0,0-.611,0c-.468.265-.952.5-1.425.758a.742.742,0,0,1-.887-.021.765.765,0,0,1-.247-.815c.1-.5.138-1.008.268-1.5a.665.665,0,0,0-.255-.734,11.579,11.579,0,0,1-1.386-1.427Z" transform="translate(2781.5 -1712.15)"/>
    </g>
    <g transform="matrix(1, 0, 0, 1, -2781.5, 1645.06)" filter="url(#Path_8751)">
      <path id="Path_8751-2" data-name="Path 8751" d="M-2751.983,1867.13c.017-.721-.2-.95-.906-.952-1.27,0-2.54.018-3.81-.008a4.6,4.6,0,0,1-4.53-4.809,4.607,4.607,0,0,1,4.236-4.374c.975-.1,1.062-.191,1.091-1.16a8.027,8.027,0,0,1,6.692-7.466,7.964,7.964,0,0,1,8.556,4.553c.3.621.436.671,1.318.49.275-.019.292.187.317.375a12.317,12.317,0,0,1-.676,5.9,11.953,11.953,0,0,1-2.88,4.494,7.289,7.289,0,0,1-2.75,1.99l-3.778.015c-.663,0-.821.125-.984.762-.469,0-.937.008-1.406,0A.516.516,0,0,0-2751.983,1867.13Z" transform="translate(2771.66 -1817.22)" fill="#eef2f4"/>
    </g>
    <g transform="matrix(1, 0, 0, 1, -2781.5, 1645.06)" filter="url(#Path_8752)">
      <path id="Path_8752-2" data-name="Path 8752" d="M-2662.5,1682.9c.582.153.775.079,1.105-.437a16.851,16.851,0,0,1,11.9-7.806,16.2,16.2,0,0,1,6.838.371,2.389,2.389,0,0,1,.255.093c-6.781,1.46-11.039,5.467-11.667,12.513a12.549,12.549,0,0,0,6.839,12.731c5.408,3,10.631,2.207,15.529-1.529a12.445,12.445,0,0,1-1.287,2.255,16.852,16.852,0,0,1-12.239,7.263,1.024,1.024,0,0,1-.142,0c-.284.083-.376-.113-.423-.321a7.617,7.617,0,0,0-2.694-4.157.85.85,0,0,1-.273-.585,5.566,5.566,0,0,0-.82-2.264,4.9,4.9,0,0,0-3.48-2.263,1.81,1.81,0,0,1-1.241-.761,10.606,10.606,0,0,0-7.583-4.32,12.718,12.718,0,0,0-1.47-.084.647.647,0,0,1-.5-.119,16.268,16.268,0,0,1,.84-7.652.889.889,0,0,0-.3-1.2Z" transform="translate(2686.76 -1665.48)" fill="#fedf2f"/>
    </g>
    <g transform="matrix(1, 0, 0, 1, -2781.5, 1645.06)" filter="url(#Path_8753)">
      <path id="Path_8753-2" data-name="Path 8753" d="M-2535.6,1739.822a7.589,7.589,0,0,0-1.884.1c-.254-.673-.793-.762-1.424-.737-.729.029-1.459.012-2.189.006a2.941,2.941,0,0,1-2.909-2.77,2.959,2.959,0,0,1,2.61-3.108c.738-.08.863-.166.947-.925a5.486,5.486,0,0,1,.979-2.744,5.213,5.213,0,0,1,8.856.536c.25.473.539.82,1.124.773.232.046.29.219.3.421a8.243,8.243,0,0,1-3.646,7.67.786.786,0,0,1-.213.1,3.043,3.043,0,0,1-.991.043A1.522,1.522,0,0,0-2535.6,1739.822Z" transform="translate(2582.03 -1711.73)" fill="#eef2f4"/>
    </g>
    <g transform="matrix(1, 0, 0, 1, -2781.5, 1645.06)" filter="url(#Path_8754)">
      <path id="Path_8754-2" data-name="Path 8754" d="M-2544.614,1730.768c.178-.6.352-.73.973-.739l1.6-.024a1.8,1.8,0,0,1,.788-.133q1.834,0,3.667,0a2.692,2.692,0,0,0,2.663-2.031,2.66,2.66,0,0,0-1.348-3.025,1.194,1.194,0,0,1-.719-1.423,1.145,1.145,0,0,0-.993-1.334c-.179-.032-.354-.163-.551-.066a.888.888,0,0,1-1.086-.594,5.092,5.092,0,0,0-5.561-2.81,5.152,5.152,0,0,0-4.139,4.611c-.1,1.041-.119,1.057-1.148,1.178a2.837,2.837,0,0,0-2.434,2.884,2.8,2.8,0,0,0,2.531,2.742c.981.054,1.967.016,2.95.026.635.007.853.211.916.833a.769.769,0,0,1-.849.6c-.968-.015-1.937.015-2.9-.016a4.262,4.262,0,0,1-4.063-3.823,4.287,4.287,0,0,1,3.161-4.56c.292-.074.424-.161.48-.5a6.567,6.567,0,0,1,5.273-5.385,6.554,6.554,0,0,1,6.749,3,.519.519,0,0,0,.509.308,2.672,2.672,0,0,1,2.75,2.672.584.584,0,0,0,.286.532,4.239,4.239,0,0,1,1.638,4.786,4.241,4.241,0,0,1-4.04,2.979c-2.079.023-4.158,0-6.237.011A.789.789,0,0,1-2544.614,1730.768Z" transform="translate(2591.05 -1702.67)"/>
    </g>
    <g transform="matrix(1, 0, 0, 1, -2781.5, 1645.06)" filter="url(#Path_8755)">
      <path id="Path_8755-2" data-name="Path 8755" d="M-2469.685,1947.207c.072-.433.135-.937.247-1.431a.459.459,0,0,0-.162-.5c-.347-.326-.685-.662-1.022-1a.7.7,0,0,1-.235-.769.745.745,0,0,1,.676-.513,8.983,8.983,0,0,1,1.034-.145.888.888,0,0,0,.937-.686,8.889,8.889,0,0,1,.391-.811c.153-.338.36-.619.766-.609a.825.825,0,0,1,.729.594c.162.36.366.7.517,1.066a.588.588,0,0,0,.563.41c.442.035.879.12,1.319.183a.711.711,0,0,1,.636.5.726.726,0,0,1-.215.781c-.319.309-.626.631-.959.925a.608.608,0,0,0-.226.663c.1.416.155.841.235,1.261a.75.75,0,0,1-.263.81.749.749,0,0,1-.849.026c-.5-.259-1.012-.7-1.521-.708-.489,0-.979.459-1.476.7C-2469.2,1948.267-2469.714,1947.948-2469.685,1947.207Z" transform="translate(2518.21 -1897.95)"/>
    </g>
    <g transform="matrix(1, 0, 0, 1, -2781.5, 1645.06)" filter="url(#Path_8756)">
      <path id="Path_8756-2" data-name="Path 8756" d="M-2698.715,1656.668a5.11,5.11,0,0,1,.138-.829.822.822,0,0,0-.322-1.026,4.3,4.3,0,0,1-.612-.6.707.707,0,0,1,.391-1.23,2.488,2.488,0,0,1,.656-.091,1.072,1.072,0,0,0,1.163-.866,3.294,3.294,0,0,1,.244-.513.735.735,0,0,1,.669-.455.744.744,0,0,1,.694.489,7,7,0,0,1,.393.809.7.7,0,0,0,.709.5,7.8,7.8,0,0,1,.941.126.715.715,0,0,1,.4,1.233,3.534,3.534,0,0,1-.613.594.865.865,0,0,0-.323,1.071c.063.244.1.5.141.746a.735.735,0,0,1-.286.758.607.607,0,0,1-.756.04,1.945,1.945,0,0,0-2.589-.015C-2698.177,1657.768-2698.735,1657.35-2698.715,1656.668Z" transform="translate(2717.98 -1645.06)"/>
    </g>
    <g transform="matrix(1, 0, 0, 1, -2781.5, 1645.06)" filter="url(#Path_8757)">
      <path id="Path_8757-2" data-name="Path 8757" d="M-2636,1900.786a13.271,13.271,0,0,0,2.546-1.947,13.205,13.205,0,0,0,2.009-2.559,12.788,12.788,0,0,0,1.616-4.609,12.754,12.754,0,0,0,.021-3.346.351.351,0,0,0-.2-.3,2.058,2.058,0,0,1,2.1.539,2.187,2.187,0,0,1,.636,2.219c-.176.771-.122.907.6,1.251a4.6,4.6,0,0,1,2.554,5.041,4.552,4.552,0,0,1-4.262,3.7C-2630.924,1900.832-2633.462,1900.788-2636,1900.786Z" transform="translate(2662.34 -1851.85)" fill="#c8e1e6"/>
    </g>
    <g transform="matrix(1, 0, 0, 1, -2781.5, 1645.06)" filter="url(#Path_8758)">
      <path id="Path_8758-2" data-name="Path 8758" d="M-2662.9,1824.2a12.034,12.034,0,0,1,4.068.49,10.838,10.838,0,0,1,5.757,4.187,1.022,1.022,0,0,0,.78.45,5.263,5.263,0,0,1,4.62,4.787.529.529,0,0,0,.213.39,7.594,7.594,0,0,1,2.733,4.215c.044.2.1.325.31.355a9.1,9.1,0,0,1-1.609.094c-.216.012-.258-.121-.306-.284a5.861,5.861,0,0,0-2.725-3.521.4.4,0,0,1-.225-.456,3.688,3.688,0,0,0-4.128-4.017.385.385,0,0,1-.437-.245,9.257,9.257,0,0,0-8.44-4.823c-.282,0-.4-.08-.432-.354C-2662.766,1825.04-2662.836,1824.619-2662.9,1824.2Z" transform="translate(2685.82 -1796.2)" fill="#f8c201"/>
    </g>
    <g transform="matrix(1, 0, 0, 1, -2781.5, 1645.06)" filter="url(#Path_8759)">
      <path id="Path_8759-2" data-name="Path 8759" d="M-2752.647,1746.24a1.714,1.714,0,0,0,1.957,1.423,1.745,1.745,0,0,0-.73,2.3,1.766,1.766,0,0,0-2.413.023,1.778,1.778,0,0,0-.768-2.3A1.746,1.746,0,0,0-2752.647,1746.24Z" transform="translate(2765.87 -1728.15)" fill="#fddf2f"/>
    </g>
    <g transform="matrix(1, 0, 0, 1, -2781.5, 1645.06)" filter="url(#Path_8760)">
      <path id="Path_8760-2" data-name="Path 8760" d="M-2453.992,1755.254a1.268,1.268,0,0,1,1.675,1.472c-.177.69-.079.849.542,1.162a2.808,2.808,0,0,1,1.537,3.16,2.785,2.785,0,0,1-2.752,2.236c-1.5.013-3.007-.01-4.511-.018a8.994,8.994,0,0,0,3-3.509,8.682,8.682,0,0,0,.717-4.239C-2453.79,1755.368-2453.843,1755.28-2453.992,1755.254Z" transform="translate(2506.51 -1735.94)" fill="#c8e1e6"/>
    </g>
    <g transform="matrix(1, 0, 0, 1, -2781.5, 1645.06)" filter="url(#Path_8761)">
      <path id="Path_8761-2" data-name="Path 8761" d="M-2453.426,1960.47c1.049-.3,1.049-.3,1.648-1.18a1.372,1.372,0,0,0,1.488,1.13,1.4,1.4,0,0,0-.57,1.779,1.474,1.474,0,0,0-1.9.044A1.336,1.336,0,0,0-2453.426,1960.47Z" transform="translate(2502.95 -1914.14)" fill="#fdde2f"/>
    </g>
    <g transform="matrix(1, 0, 0, 1, -2781.5, 1645.06)" filter="url(#Path_8762)">
      <path id="Path_8762-2" data-name="Path 8762" d="M-2681.6,1670.108a1.118,1.118,0,0,0,1.056-.848,1.066,1.066,0,0,0,1.159.8,1.136,1.136,0,0,0-.479,1.33,1.074,1.074,0,0,0-1.377.016A1.074,1.074,0,0,0-2681.6,1670.108Z" transform="translate(2702.14 -1660.95)" fill="#fdde2f"/>
    </g>
  </g>
</svg>
