<svg xmlns="http://www.w3.org/2000/svg" width="15.717" height="23.69" viewBox="0 0 15.717 23.69">
  <g id="Group_7258" data-name="Group 7258" transform="translate(-867 -1012)">
    <path id="Path_653" data-name="Path 653" d="M-260.569,181.146a5.772,5.772,0,0,1,1.111.471,3.385,3.385,0,0,1,1.427,2.629,3.563,3.563,0,0,1-.319,1.912,4.1,4.1,0,0,0-.27.831,1.481,1.481,0,0,1-1.739,1.238,1.879,1.879,0,0,0-.2,0c-.076.275-.156.547-.223.822a.186.186,0,0,0,.049.155,3.79,3.79,0,0,1,1.273,2.822c.011.129.035.258.056.411.289-.036.569-.068.848-.106.4-.054.791-.126,1.189-.165a4.738,4.738,0,0,0,1.877-.6c.3-.17.615-.318.926-.472a.458.458,0,0,1,.656.127,2.327,2.327,0,0,1,.373.827,2.22,2.22,0,0,1-.726,2.241,10.924,10.924,0,0,1-3.931,2.227c-.111.032-.222.063-.333.093l-.345.1a1.516,1.516,0,0,0,1.022,1.215c.941.36,1.88.726,2.824,1.081a4.419,4.419,0,0,1,1.722,1,3.62,3.62,0,0,1,.939,3.268,1.921,1.921,0,0,1-1.967,1.558q-4.138,0-8.277,0c-1.4,0-2.806-.029-4.208.009-1.11.03-1.344-.729-1.126-1.47a3.316,3.316,0,0,1,2.675-2.423l.167-.035a3.19,3.19,0,0,1-.541-2.3c-.013-2.312,0-4.624.023-6.936a6.515,6.515,0,0,1,.451-2.276,1.95,1.95,0,0,1,1.419-1.269.348.348,0,0,0,.206-.205c.1-.323.178-.653.252-.983a.245.245,0,0,0-.058-.193,1.208,1.208,0,0,1-.312-.863,12.313,12.313,0,0,0-.162-1.416,2.8,2.8,0,0,1,2.286-3.269c.059-.011.116-.032.175-.049Zm-3.074,22.7h.265q4.474,0,8.947,0a1.866,1.866,0,0,0,.39-.036.948.948,0,0,0,.729-.779,2.589,2.589,0,0,0-1.716-2.973c-1.083-.4-2.156-.824-3.231-1.243a2.443,2.443,0,0,1-1.506-1.612c-.034-.107-.057-.218-.072-.274-.424,0-.816.009-1.207,0a2.432,2.432,0,0,1-2.331-1.976c-.117-.628-.193-1.263-.279-1.9a.494.494,0,0,1,.413-.554.492.492,0,0,1,.559.371,1.315,1.315,0,0,1,.032.181c.072.534.132,1.07.217,1.6a1.457,1.457,0,0,0,1.543,1.293,8.579,8.579,0,0,0,4.8-1.514c.062-.042.119-.09.186-.14-.2-.392-.378-.773-.578-1.145a.26.26,0,0,0-.217-.085c-.969.129-1.937.269-2.905.4-.451.063-.655-.076-.727-.525-.063-.395-.093-.795-.144-1.192a2.462,2.462,0,0,0-1.266-2.053,12.823,12.823,0,0,0-1.2-.539.9.9,0,0,0-1.211.443,3.289,3.289,0,0,0-.3.845,15.935,15.935,0,0,0-.223,3.223c0,1.873.022,3.745.033,5.618a1.494,1.494,0,0,0,1.606,1.6c.848,0,1.7,0,2.543,0,.578,0,1.156,0,1.734,0a.483.483,0,0,1,.523.42c.05.32-.191.56-.571.56q-2.289,0-4.578,0h-.261Zm4.583-19.852c-.1.042-.177.073-.253.106l-3.1,1.377a.388.388,0,0,0-.114.681,4.331,4.331,0,0,0,2.23,1.088c.445.078.564-.012.7-.454.116-.382.229-.767.381-1.135A2.775,2.775,0,0,0-259.059,183.991Zm-3.706.547,3.331-1.478a1.842,1.842,0,0,0-2.423-.719A1.808,1.808,0,0,0-262.765,184.539Zm-1.881,17.343c-1.124-.083-2.454,1.043-2.323,1.944h2.323Zm10.112-9.694-1.056.527c.137.278.264.538.393.8.03.061.067.118.1.177A1.272,1.272,0,0,0-254.533,192.188Zm-7.865-4.7c-.057.215-.116.406-.156.6a.187.187,0,0,0,.059.163c.26.126.527.238.816.365l.177-.674Z" transform="translate(1135.01 830.854)" fill="#d3d3d3"/>
  </g>
</svg>
