<svg xmlns="http://www.w3.org/2000/svg" width="287.119" height="360.723" viewBox="0 0 287.119 360.723">
  <g id="Img_welcome" transform="translate(-134.013 -162.846)">
    <g id="Group_6980" data-name="Group 6980" transform="translate(134.013 371.309)">
      <path id="Path_8565" data-name="Path 8565" d="M142.746,451.441s26.857-.626,51.9,3.558,40.2,10.755,71.163,9.56,38.129-9.523,59.642-5.359,75.29-1.666,82.462-1.141c-35.853-71.779-54.38-117.192-54.38-117.192s-60.947-1.106-76.184-2.943-74.993,0-74.993,0Z" transform="translate(-131.971 -330.559)" fill="#f29846"/>
      <g id="Group_6924" data-name="Group 6924" transform="translate(68.718)">
        <g id="Group_6923" data-name="Group 6923">
          <g id="Group_6871" data-name="Group 6871">
            <path id="Path_8566" data-name="Path 8566" d="M190.163,344.657l-.456-.3L197.4,331.8l.456.3Z" transform="translate(-189.707 -331.8)" fill="#f29846"/>
          </g>
          <g id="Group_6872" data-name="Group 6872" transform="translate(3.022 0.075)">
            <path id="Path_8567" data-name="Path 8567" d="M192.618,344.709l-.461-.29,7.392-12.558.461.29Z" transform="translate(-192.157 -331.861)" fill="#f29846"/>
          </g>
          <g id="Group_6873" data-name="Group 6873" transform="translate(6.045 0.15)">
            <path id="Path_8568" data-name="Path 8568" d="M195.073,344.761l-.466-.281,7.09-12.558.466.281Z" transform="translate(-194.607 -331.922)" fill="#f29846"/>
          </g>
          <g id="Group_6874" data-name="Group 6874" transform="translate(9.067 0.225)">
            <path id="Path_8569" data-name="Path 8569" d="M197.527,344.813l-.471-.273,6.789-12.558.471.272Z" transform="translate(-197.056 -331.983)" fill="#f29846"/>
          </g>
          <g id="Group_6875" data-name="Group 6875" transform="translate(12.09 0.3)">
            <path id="Path_8570" data-name="Path 8570" d="M199.982,344.864l-.476-.263,6.487-12.558.476.263Z" transform="translate(-199.506 -332.044)" fill="#f29846"/>
          </g>
          <g id="Group_6876" data-name="Group 6876" transform="translate(15.112 0.376)">
            <path id="Path_8571" data-name="Path 8571" d="M202.437,344.916l-.481-.253,6.185-12.558.481.253Z" transform="translate(-201.955 -332.105)" fill="#f29846"/>
          </g>
          <g id="Group_6877" data-name="Group 6877" transform="translate(18.135 0.452)">
            <path id="Path_8572" data-name="Path 8572" d="M204.891,344.968l-.486-.243,5.883-12.558.486.243Z" transform="translate(-204.405 -332.166)" fill="#f29846"/>
          </g>
          <g id="Group_6878" data-name="Group 6878" transform="translate(21.158 0.527)">
            <path id="Path_8573" data-name="Path 8573" d="M207.345,345.019l-.49-.233,5.582-12.558.49.233Z" transform="translate(-206.855 -332.227)" fill="#f29846"/>
          </g>
          <g id="Group_6879" data-name="Group 6879" transform="translate(23.979 0.603)">
            <path id="Path_8574" data-name="Path 8574" d="M209.637,345.548l-.5-.222,5.481-13.036.5.223Z" transform="translate(-209.142 -332.289)" fill="#f29846"/>
          </g>
          <g id="Group_6880" data-name="Group 6880" transform="translate(26.818 0.679)">
            <path id="Path_8575" data-name="Path 8575" d="M211.942,346.091l-.5-.211,5.363-13.529.5.211Z" transform="translate(-211.442 -332.351)" fill="#f29846"/>
          </g>
          <g id="Group_6881" data-name="Group 6881" transform="translate(29.773 0.755)">
            <path id="Path_8576" data-name="Path 8576" d="M214.342,346.387l-.5-.2,5.129-13.774.5.2Z" transform="translate(-213.837 -332.412)" fill="#f29846"/>
          </g>
          <g id="Group_6882" data-name="Group 6882" transform="translate(32.711 0.832)">
            <path id="Path_8577" data-name="Path 8577" d="M216.726,346.767l-.508-.189,4.913-14.1.508.189Z" transform="translate(-216.218 -332.475)" fill="#f29846"/>
          </g>
          <g id="Group_6883" data-name="Group 6883" transform="translate(35.435 0.907)">
            <path id="Path_8578" data-name="Path 8578" d="M218.937,347.542l-.511-.181,4.911-14.826.511.181Z" transform="translate(-218.426 -332.535)" fill="#f29846"/>
          </g>
          <g id="Group_6884" data-name="Group 6884" transform="translate(38.489 0.985)">
            <path id="Path_8579" data-name="Path 8579" d="M221.417,348.006l-.516-.166,4.578-15.242.516.166Z" transform="translate(-220.901 -332.599)" fill="#f29846"/>
          </g>
          <g id="Group_6885" data-name="Group 6885" transform="translate(41.181 1.055)">
            <path id="Path_8580" data-name="Path 8580" d="M223.6,347.993l-.515-.167,4.609-15.171.515.167Z" transform="translate(-223.083 -332.655)" fill="#f29846"/>
          </g>
          <g id="Group_6886" data-name="Group 6886" transform="translate(44.7 1.139)">
            <path id="Path_8581" data-name="Path 8581" d="M226.458,347.964l-.523-.141,3.81-15.1.523.141Z" transform="translate(-225.935 -332.723)" fill="#f29846"/>
          </g>
          <g id="Group_6887" data-name="Group 6887" transform="translate(47.801 1.215)">
            <path id="Path_8582" data-name="Path 8582" d="M228.974,347.944l-.526-.129,3.431-15.03.526.129Z" transform="translate(-228.448 -332.785)" fill="#f29846"/>
          </g>
          <g id="Group_6888" data-name="Group 6888" transform="translate(50.551 1.292)">
            <path id="Path_8583" data-name="Path 8583" d="M231.206,349.621l-.528-.116,3.4-16.658.528.116Z" transform="translate(-230.678 -332.848)" fill="#f29846"/>
          </g>
          <g id="Group_6889" data-name="Group 6889" transform="translate(53.951 1.374)">
            <path id="Path_8584" data-name="Path 8584" d="M233.966,349.595l-.533-.094,2.723-16.587.533.094Z" transform="translate(-233.433 -332.914)" fill="#f29846"/>
          </g>
          <g id="Group_6890" data-name="Group 6890" transform="translate(56.674 1.447)">
            <path id="Path_8585" data-name="Path 8585" d="M236.173,350.5l-.533-.089,2.723-17.438.533.089Z" transform="translate(-235.64 -332.973)" fill="#f29846"/>
          </g>
          <g id="Group_6891" data-name="Group 6891" transform="translate(59.946 1.525)">
            <path id="Path_8586" data-name="Path 8586" d="M238.827,349.557l-.535-.075,2.173-16.446.535.075Z" transform="translate(-238.292 -333.036)" fill="#f29846"/>
          </g>
          <g id="Group_6892" data-name="Group 6892" transform="translate(63.072 1.601)">
            <path id="Path_8587" data-name="Path 8587" d="M241.362,349.536l-.537-.062L242.6,333.1l.537.062Z" transform="translate(-240.825 -333.098)" fill="#f29846"/>
          </g>
          <g id="Group_6893" data-name="Group 6893" transform="translate(66.126 1.679)">
            <path id="Path_8588" data-name="Path 8588" d="M243.838,350.319l-.538-.048,1.439-17.11.538.048Z" transform="translate(-243.301 -333.161)" fill="#f29846"/>
          </g>
          <g id="Group_6894" data-name="Group 6894" transform="translate(69.533 1.761)">
            <path id="Path_8589" data-name="Path 8589" d="M246.6,349.488l-.539-.027.754-16.234.539.027Z" transform="translate(-246.062 -333.227)" fill="#f29846"/>
          </g>
          <g id="Group_6895" data-name="Group 6895" transform="translate(72.428 1.834)">
            <path id="Path_8590" data-name="Path 8590" d="M248.948,349.471l-.539-.021.582-16.164.539.021Z" transform="translate(-248.408 -333.287)" fill="#f29846"/>
          </g>
          <g id="Group_6896" data-name="Group 6896" transform="translate(75.539 1.912)">
            <rect id="Rectangle_17324" data-name="Rectangle 17324" width="16.094" height="0.54" transform="translate(0 16.093) rotate(-89.306)" fill="#f29846"/>
          </g>
          <g id="Group_6897" data-name="Group 6897" transform="translate(78.457 1.982)">
            <rect id="Rectangle_17325" data-name="Rectangle 17325" width="0.54" height="16.023" transform="matrix(1, -0.012, 0.012, 1, 0, 0.006)" fill="#f29846"/>
          </g>
          <g id="Group_6898" data-name="Group 6898" transform="translate(81.18 2.046)">
            <path id="Path_8591" data-name="Path 8591" d="M256.077,349.431l-.575-15.952.539-.021.575,15.951Z" transform="translate(-255.502 -333.459)" fill="#f29846"/>
          </g>
          <g id="Group_6899" data-name="Group 6899" transform="translate(83.904 2.11)">
            <path id="Path_8592" data-name="Path 8592" d="M258.663,349.426l-.954-15.881.539-.035.954,15.881Z" transform="translate(-257.709 -333.51)" fill="#f29846"/>
          </g>
          <g id="Group_6900" data-name="Group 6900" transform="translate(86.628 2.174)">
            <path id="Path_8593" data-name="Path 8593" d="M261.155,348.341l-1.239-14.731.538-.048,1.239,14.731Z" transform="translate(-259.917 -333.562)" fill="#f29846"/>
          </g>
          <g id="Group_6901" data-name="Group 6901" transform="translate(89.351 2.237)">
            <path id="Path_8594" data-name="Path 8594" d="M263.612,347.435l-1.488-13.759.537-.062,1.488,13.759Z" transform="translate(-262.124 -333.614)" fill="#f29846"/>
          </g>
          <g id="Group_6902" data-name="Group 6902" transform="translate(92.076 2.301)">
            <path id="Path_8595" data-name="Path 8595" d="M266.15,347.5l-1.818-13.759.535-.075,1.818,13.759Z" transform="translate(-264.332 -333.665)" fill="#f29846"/>
          </g>
          <g id="Group_6903" data-name="Group 6903" transform="translate(94.8 2.365)">
            <path id="Path_8596" data-name="Path 8596" d="M268.711,347.706l-2.171-13.9.533-.089,2.171,13.9Z" transform="translate(-266.54 -333.717)" fill="#f29846"/>
          </g>
          <g id="Group_6904" data-name="Group 6904" transform="translate(97.525 2.429)">
            <path id="Path_8597" data-name="Path 8597" d="M271.011,346.43l-2.262-12.558.53-.1,2.263,12.558Z" transform="translate(-268.748 -333.769)" fill="#f29846"/>
          </g>
          <g id="Group_6905" data-name="Group 6905" transform="translate(100.249 2.493)">
            <path id="Path_8598" data-name="Path 8598" d="M273.521,346.494l-2.565-12.558.528-.115,2.565,12.558Z" transform="translate(-270.956 -333.821)" fill="#f29846"/>
          </g>
          <g id="Group_6906" data-name="Group 6906" transform="translate(102.974 2.557)">
            <path id="Path_8599" data-name="Path 8599" d="M276.031,346.56,273.165,334l.525-.129,2.866,12.558Z" transform="translate(-273.165 -333.873)" fill="#f29846"/>
          </g>
          <g id="Group_6907" data-name="Group 6907" transform="translate(105.699 2.622)">
            <path id="Path_8600" data-name="Path 8600" d="M278.541,346.624l-3.168-12.558.522-.141,3.168,12.558Z" transform="translate(-275.373 -333.925)" fill="#f29846"/>
          </g>
          <g id="Group_6908" data-name="Group 6908" transform="translate(108.423 2.686)">
            <path id="Path_8601" data-name="Path 8601" d="M281.051,346.689l-3.469-12.558.519-.154,3.469,12.558Z" transform="translate(-277.582 -333.977)" fill="#f29846"/>
          </g>
          <g id="Group_6909" data-name="Group 6909" transform="translate(111.148 2.751)">
            <path id="Path_8602" data-name="Path 8602" d="M283.561,346.753,279.79,334.2l.516-.166,3.771,12.558Z" transform="translate(-279.79 -334.03)" fill="#f29846"/>
          </g>
          <g id="Group_6910" data-name="Group 6910" transform="translate(113.873 2.815)">
            <path id="Path_8603" data-name="Path 8603" d="M286.072,346.818,282,334.26l.511-.178,4.074,12.558Z" transform="translate(-281.999 -334.082)" fill="#f29846"/>
          </g>
          <g id="Group_6911" data-name="Group 6911" transform="translate(116.598 2.881)">
            <path id="Path_8604" data-name="Path 8604" d="M288.582,346.882l-4.375-12.558.508-.189,4.375,12.558Z" transform="translate(-284.207 -334.135)" fill="#f29846"/>
          </g>
          <g id="Group_6912" data-name="Group 6912" transform="translate(119.323 2.945)">
            <path id="Path_8605" data-name="Path 8605" d="M291.092,346.946l-4.677-12.558.5-.2,4.677,12.558Z" transform="translate(-286.416 -334.187)" fill="#f29846"/>
          </g>
          <g id="Group_6913" data-name="Group 6913" transform="translate(122.049 3.01)">
            <path id="Path_8606" data-name="Path 8606" d="M293.6,347.01l-4.978-12.558.5-.211L294.1,346.8Z" transform="translate(-288.625 -334.24)" fill="#f29846"/>
          </g>
          <g id="Group_6914" data-name="Group 6914" transform="translate(124.774 3.076)">
            <path id="Path_8607" data-name="Path 8607" d="M296.114,347.073l-5.28-12.558.5-.222,5.28,12.558Z" transform="translate(-290.833 -334.293)" fill="#f29846"/>
          </g>
          <g id="Group_6915" data-name="Group 6915" transform="translate(127.5 3.141)">
            <path id="Path_8608" data-name="Path 8608" d="M298.625,347.137l-5.582-12.558.49-.233,5.582,12.558Z" transform="translate(-293.043 -334.346)" fill="#f29846"/>
          </g>
          <g id="Group_6916" data-name="Group 6916" transform="translate(130.225 3.206)">
            <path id="Path_8609" data-name="Path 8609" d="M301.135,347.2l-5.884-12.558.486-.243,5.884,12.558Z" transform="translate(-295.252 -334.399)" fill="#f29846"/>
          </g>
          <g id="Group_6917" data-name="Group 6917" transform="translate(132.951 3.272)">
            <path id="Path_8610" data-name="Path 8610" d="M303.646,347.263,297.461,334.7l.481-.253,6.185,12.558Z" transform="translate(-297.461 -334.452)" fill="#f29846"/>
          </g>
          <g id="Group_6918" data-name="Group 6918" transform="translate(135.677 3.338)">
            <path id="Path_8611" data-name="Path 8611" d="M306.157,347.326l-6.487-12.558.477-.263,6.487,12.558Z" transform="translate(-299.67 -334.505)" fill="#f29846"/>
          </g>
          <g id="Group_6919" data-name="Group 6919" transform="translate(138.403 3.404)">
            <path id="Path_8612" data-name="Path 8612" d="M308.668,347.39l-6.789-12.558.471-.272,6.789,12.558Z" transform="translate(-301.879 -334.559)" fill="#f29846"/>
          </g>
          <g id="Group_6920" data-name="Group 6920" transform="translate(141.129 3.47)">
            <path id="Path_8613" data-name="Path 8613" d="M311.179,347.452l-7.091-12.558.466-.281,7.091,12.558Z" transform="translate(-304.088 -334.612)" fill="#f29846"/>
          </g>
          <g id="Group_6921" data-name="Group 6921" transform="translate(143.855 3.536)">
            <path id="Path_8614" data-name="Path 8614" d="M313.69,347.514,306.3,334.956l.461-.29,7.392,12.558Z" transform="translate(-306.298 -334.666)" fill="#f29846"/>
          </g>
          <g id="Group_6922" data-name="Group 6922" transform="translate(146.58 3.602)">
            <path id="Path_8615" data-name="Path 8615" d="M316.2,347.576l-7.694-12.558.457-.3,7.694,12.558Z" transform="translate(-308.506 -334.72)" fill="#f29846"/>
          </g>
        </g>
      </g>
      <g id="Group_6978" data-name="Group 6978" transform="translate(0 118.202)">
        <g id="Group_6977" data-name="Group 6977" transform="translate(0 0)">
          <g id="Group_6925" data-name="Group 6925">
            <rect id="Rectangle_17326" data-name="Rectangle 17326" width="26.682" height="1.002" transform="matrix(0.535, -0.845, 0.845, 0.535, 0, 22.54)" fill="#f29846"/>
          </g>
          <g id="Group_6926" data-name="Group 6926" transform="translate(5.614 0.132)">
            <rect id="Rectangle_17327" data-name="Rectangle 17327" width="26.387" height="1.002" transform="matrix(0.519, -0.854, 0.854, 0.519, 0, 22.547)" fill="#f29846"/>
          </g>
          <g id="Group_6927" data-name="Group 6927" transform="translate(11.217 0.269)">
            <rect id="Rectangle_17328" data-name="Rectangle 17328" width="26.1" height="1.001" transform="translate(0 22.54) rotate(-59.723)" fill="#f29846"/>
          </g>
          <g id="Group_6928" data-name="Group 6928" transform="translate(16.823 0.405)">
            <rect id="Rectangle_17329" data-name="Rectangle 17329" width="25.823" height="1.002" transform="translate(0 22.538) rotate(-60.787)" fill="#f29846"/>
          </g>
          <g id="Group_6929" data-name="Group 6929" transform="translate(22.438 0.537)">
            <rect id="Rectangle_17330" data-name="Rectangle 17330" width="25.554" height="1.001" transform="translate(0 22.544) rotate(-61.91)" fill="#f29846"/>
          </g>
          <g id="Group_6930" data-name="Group 6930" transform="translate(28.052 0.67)">
            <rect id="Rectangle_17331" data-name="Rectangle 17331" width="25.295" height="1.002" transform="translate(0 22.551) rotate(-63.063)" fill="#f29846"/>
          </g>
          <g id="Group_6931" data-name="Group 6931" transform="translate(33.657 0.808)">
            <rect id="Rectangle_17332" data-name="Rectangle 17332" width="25.046" height="1.002" transform="matrix(0.436, -0.9, 0.9, 0.436, 0, 22.546)" fill="#f29846"/>
          </g>
          <g id="Group_6932" data-name="Group 6932" transform="translate(39.255 0.948)">
            <rect id="Rectangle_17333" data-name="Rectangle 17333" width="24.807" height="1.002" transform="translate(0 22.536) rotate(-65.291)" fill="#f29846"/>
          </g>
          <g id="Group_6933" data-name="Group 6933" transform="translate(44.499 1.082)">
            <rect id="Rectangle_17334" data-name="Rectangle 17334" width="25.515" height="1.002" transform="translate(0 23.401) rotate(-66.514)" fill="#f29846"/>
          </g>
          <g id="Group_6934" data-name="Group 6934" transform="translate(49.77 1.216)">
            <rect id="Rectangle_17335" data-name="Rectangle 17335" width="26.245" height="1.002" transform="translate(0 24.289) rotate(-67.739)" fill="#f29846"/>
          </g>
          <g id="Group_6935" data-name="Group 6935" transform="translate(55.248 1.355)">
            <rect id="Rectangle_17336" data-name="Rectangle 17336" width="26.493" height="1.002" transform="translate(0 24.725) rotate(-68.945)" fill="#f29846"/>
          </g>
          <g id="Group_6936" data-name="Group 6936" transform="translate(60.708 1.49)">
            <rect id="Rectangle_17337" data-name="Rectangle 17337" width="26.907" height="1.001" transform="translate(0 25.322) rotate(-70.234)" fill="#f29846"/>
          </g>
          <g id="Group_6937" data-name="Group 6937" transform="translate(65.75 1.627)">
            <rect id="Rectangle_17338" data-name="Rectangle 17338" width="28.131" height="1.002" transform="translate(0 26.611) rotate(-71.083)" fill="#f29846"/>
          </g>
          <g id="Group_6938" data-name="Group 6938" transform="translate(71.416 1.769)">
            <rect id="Rectangle_17339" data-name="Rectangle 17339" width="28.648" height="1.002" transform="translate(0 27.356) rotate(-72.73)" fill="#f29846"/>
          </g>
          <g id="Group_6939" data-name="Group 6939" transform="translate(76.426 1.889)">
            <rect id="Rectangle_17340" data-name="Rectangle 17340" width="28.544" height="1.002" transform="translate(0 27.239) rotate(-72.605)" fill="#f29846"/>
          </g>
          <g id="Group_6940" data-name="Group 6940" transform="translate(82.952 2.042)">
            <rect id="Rectangle_17341" data-name="Rectangle 17341" width="28.013" height="1.002" transform="matrix(0.252, -0.968, 0.968, 0.252, 0, 27.109)" fill="#f29846"/>
          </g>
          <g id="Group_6941" data-name="Group 6941" transform="translate(88.691 2.183)">
            <rect id="Rectangle_17342" data-name="Rectangle 17342" width="27.72" height="1.002" transform="translate(0 26.975) rotate(-76.686)" fill="#f29846"/>
          </g>
          <g id="Group_6942" data-name="Group 6942" transform="translate(93.798 2.32)">
            <rect id="Rectangle_17343" data-name="Rectangle 17343" width="30.56" height="1.002" transform="translate(0 29.898) rotate(-78.055)" fill="#f29846"/>
          </g>
          <g id="Group_6943" data-name="Group 6943" transform="translate(100.104 2.467)">
            <rect id="Rectangle_17344" data-name="Rectangle 17344" width="30.2" height="1.002" transform="translate(0 29.771) rotate(-80.334)" fill="#f29846"/>
          </g>
          <g id="Group_6944" data-name="Group 6944" transform="translate(105.152 2.598)">
            <rect id="Rectangle_17345" data-name="Rectangle 17345" width="31.707" height="1.002" transform="translate(0 31.298) rotate(-80.781)" fill="#f29846"/>
          </g>
          <g id="Group_6945" data-name="Group 6945" transform="translate(111.247 2.734)">
            <rect id="Rectangle_17346" data-name="Rectangle 17346" width="29.795" height="1.002" transform="translate(0 29.523) rotate(-82.259)" fill="#f29846"/>
          </g>
          <g id="Group_6946" data-name="Group 6946" transform="translate(117.034 2.874)">
            <rect id="Rectangle_17347" data-name="Rectangle 17347" width="29.577" height="1.002" transform="matrix(0.111, -0.994, 0.994, 0.111, 0, 29.394)" fill="#f29846"/>
          </g>
          <g id="Group_6947" data-name="Group 6947" transform="translate(122.716 3.013)">
            <rect id="Rectangle_17348" data-name="Rectangle 17348" width="30.828" height="1.002" transform="translate(0 30.714) rotate(-85.075)" fill="#f29846"/>
          </g>
          <g id="Group_6948" data-name="Group 6948" transform="translate(129.013 3.16)">
            <rect id="Rectangle_17349" data-name="Rectangle 17349" width="29.174" height="1.002" transform="translate(0 29.139) rotate(-87.198)" fill="#f29846"/>
          </g>
          <g id="Group_6949" data-name="Group 6949" transform="translate(134.401 3.291)">
            <rect id="Rectangle_17350" data-name="Rectangle 17350" width="29.034" height="1.002" transform="translate(0 29.014) rotate(-87.875)" fill="#f29846"/>
          </g>
          <g id="Group_6950" data-name="Group 6950" transform="translate(140.184 3.431)">
            <rect id="Rectangle_17351" data-name="Rectangle 17351" width="28.889" height="1.002" transform="matrix(0.012, -1, 1, 0.012, 0, 28.887)" fill="#f29846"/>
          </g>
          <g id="Group_6951" data-name="Group 6951" transform="translate(145.586 3.557)">
            <rect id="Rectangle_17352" data-name="Rectangle 17352" width="1.002" height="28.763" transform="translate(0 0.012) rotate(-0.711)" fill="#f29846"/>
          </g>
          <g id="Group_6952" data-name="Group 6952" transform="translate(150.639 3.672)">
            <rect id="Rectangle_17353" data-name="Rectangle 17353" width="1.002" height="28.653" transform="translate(0 0.037) rotate(-2.134)" fill="#f29846"/>
          </g>
          <g id="Group_6953" data-name="Group 6953" transform="translate(155.693 3.787)">
            <rect id="Rectangle_17354" data-name="Rectangle 17354" width="1.002" height="28.561" transform="translate(0 0.062) rotate(-3.554)" fill="#f29846"/>
          </g>
          <g id="Group_6954" data-name="Group 6954" transform="translate(160.747 3.901)">
            <rect id="Rectangle_17355" data-name="Rectangle 17355" width="1.002" height="26.541" transform="translate(0 0.087) rotate(-4.968)" fill="#f29846"/>
          </g>
          <g id="Group_6955" data-name="Group 6955" transform="translate(165.802 4.016)">
            <rect id="Rectangle_17356" data-name="Rectangle 17356" width="1.002" height="24.851" transform="matrix(0.994, -0.111, 0.111, 0.994, 0, 0.111)" fill="#f29846"/>
          </g>
          <g id="Group_6956" data-name="Group 6956" transform="translate(170.858 4.13)">
            <rect id="Rectangle_17357" data-name="Rectangle 17357" width="1.001" height="24.927" transform="matrix(0.991, -0.135, 0.135, 0.991, 0, 0.135)" fill="#f29846"/>
          </g>
          <g id="Group_6957" data-name="Group 6957" transform="translate(175.913 4.245)">
            <rect id="Rectangle_17358" data-name="Rectangle 17358" width="1.001" height="25.274" transform="matrix(0.987, -0.159, 0.159, 0.987, 0, 0.16)" fill="#f29846"/>
          </g>
          <g id="Group_6958" data-name="Group 6958" transform="translate(180.968 4.36)">
            <rect id="Rectangle_17359" data-name="Rectangle 17359" width="1.001" height="22.929" transform="translate(0 0.183) rotate(-10.55)" fill="#f29846"/>
          </g>
          <g id="Group_6959" data-name="Group 6959" transform="translate(186.023 4.475)">
            <rect id="Rectangle_17360" data-name="Rectangle 17360" width="1.002" height="23.039" transform="translate(0 0.207) rotate(-11.921)" fill="#f29846"/>
          </g>
          <g id="Group_6960" data-name="Group 6960" transform="translate(191.079 4.59)">
            <rect id="Rectangle_17361" data-name="Rectangle 17361" width="1.001" height="23.161" transform="translate(0 0.23) rotate(-13.276)" fill="#f29846"/>
          </g>
          <g id="Group_6961" data-name="Group 6961" transform="translate(196.136 4.705)">
            <rect id="Rectangle_17362" data-name="Rectangle 17362" width="1.001" height="23.296" transform="translate(0 0.253) rotate(-14.615)" fill="#f29846"/>
          </g>
          <g id="Group_6962" data-name="Group 6962" transform="translate(201.192 4.821)">
            <rect id="Rectangle_17363" data-name="Rectangle 17363" width="1.001" height="23.443" transform="translate(0 0.275) rotate(-15.939)" fill="#f29846"/>
          </g>
          <g id="Group_6963" data-name="Group 6963" transform="translate(206.247 4.937)">
            <rect id="Rectangle_17364" data-name="Rectangle 17364" width="1.002" height="23.603" transform="translate(0 0.297) rotate(-17.248)" fill="#f29846"/>
          </g>
          <g id="Group_6964" data-name="Group 6964" transform="translate(211.305 5.053)">
            <rect id="Rectangle_17365" data-name="Rectangle 17365" width="1.001" height="23.775" transform="matrix(0.948, -0.318, 0.318, 0.948, 0, 0.318)" fill="#f29846"/>
          </g>
          <g id="Group_6965" data-name="Group 6965" transform="translate(216.361 5.17)">
            <path id="Path_8616" data-name="Path 8616" d="M317.486,454.671l-8.119-22.542.943-.338,8.119,22.542Z" transform="translate(-309.368 -431.79)" fill="#f29846"/>
          </g>
          <g id="Group_6966" data-name="Group 6966" transform="translate(221.418 5.285)">
            <rect id="Rectangle_17366" data-name="Rectangle 17366" width="1.002" height="24.155" transform="translate(0 0.36) rotate(-21.056)" fill="#f29846"/>
          </g>
          <g id="Group_6967" data-name="Group 6967" transform="translate(226.475 5.403)">
            <rect id="Rectangle_17367" data-name="Rectangle 17367" width="1.002" height="24.361" transform="matrix(0.925, -0.379, 0.379, 0.925, 0, 0.38)" fill="#f29846"/>
          </g>
          <g id="Group_6968" data-name="Group 6968" transform="translate(231.533 5.52)">
            <rect id="Rectangle_17368" data-name="Rectangle 17368" width="1.003" height="24.579" transform="matrix(0.917, -0.399, 0.399, 0.917, 0, 0.4)" fill="#f29846"/>
          </g>
          <g id="Group_6969" data-name="Group 6969" transform="translate(236.591 5.637)">
            <rect id="Rectangle_17369" data-name="Rectangle 17369" width="1.002" height="24.808" transform="matrix(0.909, -0.418, 0.418, 0.909, 0, 0.418)" fill="#f29846"/>
          </g>
          <g id="Group_6970" data-name="Group 6970" transform="translate(241.648 5.755)">
            <rect id="Rectangle_17370" data-name="Rectangle 17370" width="1.002" height="25.047" transform="matrix(0.9, -0.436, 0.436, 0.9, 0, 0.437)" fill="#f29846"/>
          </g>
          <g id="Group_6971" data-name="Group 6971" transform="translate(246.706 5.872)">
            <rect id="Rectangle_17371" data-name="Rectangle 17371" width="1.001" height="25.295" transform="translate(0 0.454) rotate(-26.983)" fill="#f29846"/>
          </g>
          <g id="Group_6972" data-name="Group 6972" transform="translate(251.764 5.991)">
            <rect id="Rectangle_17372" data-name="Rectangle 17372" width="1.002" height="25.554" transform="translate(0 0.472) rotate(-28.102)" fill="#f29846"/>
          </g>
          <g id="Group_6973" data-name="Group 6973" transform="translate(256.822 6.109)">
            <rect id="Rectangle_17373" data-name="Rectangle 17373" width="1.002" height="25.823" transform="matrix(0.873, -0.488, 0.488, 0.873, 0, 0.489)" fill="#f29846"/>
          </g>
          <g id="Group_6974" data-name="Group 6974" transform="translate(261.88 6.228)">
            <rect id="Rectangle_17374" data-name="Rectangle 17374" width="1.001" height="26.101" transform="translate(0 0.505) rotate(-30.271)" fill="#f29846"/>
          </g>
          <g id="Group_6975" data-name="Group 6975" transform="translate(266.938 6.347)">
            <rect id="Rectangle_17375" data-name="Rectangle 17375" width="1.001" height="26.387" transform="matrix(0.854, -0.52, 0.52, 0.854, 0, 0.52)" fill="#f29846"/>
          </g>
          <g id="Group_6976" data-name="Group 6976" transform="translate(271.995 6.465)">
            <rect id="Rectangle_17376" data-name="Rectangle 17376" width="1.003" height="26.682" transform="translate(0 0.536) rotate(-32.347)" fill="#f29846"/>
          </g>
        </g>
      </g>
      <g id="Group_6979" data-name="Group 6979" transform="translate(33.977 14.058)">
        <path id="Path_8617" data-name="Path 8617" d="M256.84,444.6c-15.417,0-26.23-2.141-37.6-4.395-5.193-1.028-10.564-2.091-16.6-3a238.065,238.065,0,0,0-37.49-2.679l-3.6.1,41.521-90.77,1.4-.036c2.263-.057,55.565-1.384,68.4.012,12.584,1.37,68.382,2.214,68.945,2.222l1.439.022.58,1.317c.16.368,16.31,37.239,34.834,89.168l1.146,3.214-3.4-.226c-1.663-.109-6.729.222-12.6.607-15.17.992-38.092,2.492-51.053.231-9.761-1.7-15.711-.57-23.947,1a154.831,154.831,0,0,1-25.823,3.107Q259.792,444.6,256.84,444.6Zm-88.258-14.573a252.358,252.358,0,0,1,34.724,2.747c6.137.924,11.559,2,16.8,3.036,12.564,2.487,24.429,4.837,42.724,4.2a149.226,149.226,0,0,0,25.142-3.03c8.377-1.594,14.994-2.854,25.554-1.009,12.431,2.172,35.035.692,49.99-.289,4.071-.265,7.438-.486,9.866-.582-16.071-44.782-30.122-77.735-33.082-84.587-9.084-.144-56.125-.943-67.917-2.226-11.407-1.24-57.729-.225-66.4-.021Z" transform="translate(-161.55 -343.194)" fill="#ffd385"/>
      </g>
      <path id="Path_8618" data-name="Path 8618" d="M199.314,359.145s-11.321,9.957-10.933,21.16-2.524,26.218,15.85,35.63,15.685,3.136,26.665,9.635,20.694,7.27,24.24,9.013,14.377,2.564,19.381,4.8,6.051-2.148,8.365-1.783,3.361,2.979,5.677,3.128.9.9,3.959,2.465,2.315.9,5.154,2.764,15.237,1.344,22.856-4.258,14.678-13.108,14.118-17.479-6.163-4.165-5.715-5.779,9.524-6.321,9.524-13.715-1.456-18.039-6.611-21.512S199.314,359.145,199.314,359.145Z" transform="translate(-121.301 -325.406)" fill="#efcdb1" style="mix-blend-mode: multiply;isolation: isolate"/>
    </g>
    <g id="Group_6990" data-name="Group 6990" transform="translate(195.213 162.846)">
      <g id="Group_6982" data-name="Group 6982" transform="translate(56.771)">
        <g id="Group_6981" data-name="Group 6981" transform="translate(0 33.699)">
          <path id="Path_8619" data-name="Path 8619" d="M234.6,191.24a5.557,5.557,0,0,0-4.093-.982c-2.127.491-.083,10.641,2.7,13.34s5.894,1.392,6.057,0S234.6,191.24,234.6,191.24Z" transform="translate(-229.625 -190.158)" fill="#eeb294"/>
          <path id="Path_8620" data-name="Path 8620" d="M272.872,191.24a5.557,5.557,0,0,1,4.093-.982c2.128.491.084,10.641-2.7,13.34s-5.894,1.392-6.058,0S272.872,191.24,272.872,191.24Z" transform="translate(-220.604 -190.158)" fill="#eeb294"/>
        </g>
        <path id="Path_8621" data-name="Path 8621" d="M239.294,206.206a58.366,58.366,0,0,1-1.038,20.572h34.923s-2.183-13.2.654-22.917C268.05,205.279,239.294,206.206,239.294,206.206Z" transform="translate(-227.607 -153.255)" fill="#eeb294"/>
        <path id="Path_8622" data-name="Path 8622" d="M233.657,191.069s-.164,7.039,2.538,12.768,4.5,10.477,7.939,12.2,18.662,2.865,23.982.491,12.061-15.714,12.987-24.391C267.542,190.25,233.657,191.069,233.657,191.069Z" transform="translate(-228.683 -156.287)" fill="#663a16"/>
        <path id="Path_8623" data-name="Path 8623" d="M256.838,219.125a23.2,23.2,0,0,0,21.172-10.913c7.857-12.441,8.076-29.684-4.584-40.378s-31.648-2.4-37.541,8.076-3.492,29.9,3.056,35.8S249.855,218.47,256.838,219.125Z" transform="translate(-228.946 -162.845)" fill="#ededed"/>
        <path id="Path_8624" data-name="Path 8624" d="M256.234,209.81A19.36,19.36,0,0,0,273.9,200.7c6.557-10.382,6.738-24.769-3.825-33.7s-26.41-2-31.327,6.739-2.914,24.953,2.549,29.87S250.405,209.263,256.234,209.81Z" transform="translate(-228.147 -162.846)" fill="#fff"/>
      </g>
      <g id="Group_6986" data-name="Group 6986" transform="translate(0 49.348)">
        <g id="Group_6985" data-name="Group 6985" transform="translate(13.595)">
          <g id="Group_6983" data-name="Group 6983">
            <path id="Path_8625" data-name="Path 8625" d="M197.308,217.3s4.489-10.8,9.34-13.2,4.67-.764,4.61,0-5.277,2.564-7.218,9.549c2.548-4.474,6.49-8.567,8.674-9.549s3.275.437,2.79,1.363-6.307,3.874-7.582,11.514c1.152-2.565,3.276-7.367,6.611-9.767,1.456-1.092,2.427.436,1.516,1.746a23.549,23.549,0,0,0-5.579,11.131c1.456-2.891,2.183-7.038,4.4-8.812,1.273-.627,1.516.6.758,2.4s-4.124,8.622-3.487,13.342-2.729,13.641-2.729,13.641l-.274,2.865h-7.824Z" transform="translate(-194.007 -202.84)" fill="#eeb294"/>
            <path id="Path_8626" data-name="Path 8626" d="M196.721,245.876s3.882-8.731,0-15.933-.97-12.986-1.941-18.444,3.4-3.273,4.246-1.309-.97,3.929,2.062,7.749,5.7,14.077,5.7,16.478-.849,8.4-.849,8.4Z" transform="translate(-194.633 -201.621)" fill="#e8a080"/>
          </g>
          <g id="Group_6984" data-name="Group 6984" transform="translate(123.669)">
            <path id="Path_8627" data-name="Path 8627" d="M314.607,217.3s-4.64-10.8-9.657-13.2-4.829-.764-4.766,0,5.456,2.564,7.462,9.549c-2.634-4.474-6.711-8.567-8.968-9.549s-3.387.437-2.886,1.363,6.523,3.874,7.84,11.514c-1.192-2.565-3.387-7.367-6.836-9.767-1.505-1.092-2.508.436-1.568,1.746A23.316,23.316,0,0,1,301,220.085c-1.505-2.891-2.258-7.038-4.547-8.812-1.316-.627-1.568.6-.783,2.4s4.264,8.622,3.607,13.342,2.822,13.641,2.822,13.641l.283,2.865h8.089Z" transform="translate(-294.863 -202.84)" fill="#eeb294"/>
            <path id="Path_8628" data-name="Path 8628" d="M313.855,245.876s-4.014-8.731,0-15.933,1-12.986,2.006-18.444-3.512-3.273-4.39-1.309,1,3.929-2.132,7.749-5.9,14.077-5.9,16.478.878,8.4.878,8.4Z" transform="translate(-292.857 -201.621)" fill="#e8a080"/>
          </g>
        </g>
        <path id="Path_8629" data-name="Path 8629" d="M209.127,234.821s-9.6-.436-12.876,2.184c-.655,11.349.218,14.405-4.147,20.516s-12.082,23.46-6.586,37.157C203.671,279.565,209.127,234.821,209.127,234.821Z" transform="translate(-183.614 -195.368)" fill="#edcc40"/>
        <path id="Path_8630" data-name="Path 8630" d="M299.33,234.8s15.628-.408,18.9,2.211c.654,11.349-.218,14.405,4.147,20.516s12.081,23.46,6.585,37.157C310.811,279.57,299.33,234.8,299.33,234.8Z" transform="translate(-156.555 -195.373)" fill="#edcc40"/>
      </g>
      <g id="Group_6989" data-name="Group 6989" transform="translate(1.47 64.751)">
        <g id="Group_6988" data-name="Group 6988">
          <path id="Path_8631" data-name="Path 8631" d="M239.848,413.816s44.744,10.442,64.388,5.858,20.3-15.353,18.661-29.1-7.353-29.3-11.459-33.394S239.848,413.816,239.848,413.816Z" transform="translate(-171.934 -182.199)" fill="#4a3852"/>
          <path id="Path_8632" data-name="Path 8632" d="M217.4,391.5s-8.021,4.584-5.4,10.8,11.95,9.986,19.971,14.569,15.06,8.676,26.519,9.985c5.729,1.473,9.166,5.4,12.768,2.128s-2.7-5.647-5.729-6.467-.164-1.964,1.228-1.392,2.864,3.684,7.039,3.93,4.256-3.93,3.028-4.993a18.339,18.339,0,0,0-6.712-2.946c-2.537-.572-1.555-1.883.083-1.228s2.442,2.291,7.318,2.62,5.941-3.766,4.713-4.911-5.974-1.146-8.1-2.047.164-1.145.737-1.064a22.963,22.963,0,0,0,6.384,1.309c3.029,0,7.2-1.473,6.712-5.238s-2.946-3.356-7.53-4.42S217.4,391.5,217.4,391.5Z" transform="translate(-178.57 -174.126)" fill="#efac8e"/>
          <path id="Path_8633" data-name="Path 8633" d="M237.369,414.195c15.237,6.274,29.579-9.86,46.608-7.171a6.518,6.518,0,0,1,3.343,2.275,3.764,3.764,0,0,0,.633-2.737c-.491-3.766-2.946-3.356-7.53-4.42S217.4,391.5,217.4,391.5s-5.957,3.409-5.921,8.335c4.967,3.932,11.08,4.939,17.824,7.187C231.991,407.92,234.679,413.3,237.369,414.195Z" transform="translate(-178.569 -174.126)" fill="#e8987c"/>
          <path id="Path_8634" data-name="Path 8634" d="M260.928,404.4a29.6,29.6,0,0,1-12.848,15.18c6.723-.3,14.342-11.984,15.537-15.18A6.1,6.1,0,0,0,260.928,404.4Z" transform="translate(-170.009 -171.147)" fill="#e8987c"/>
          <g id="Group_6987" data-name="Group 6987">
            <path id="Path_8635" data-name="Path 8635" d="M208.346,337.77S197.87,345.954,193.614,362s-.655,41.906,24.227,51.074,70.39,9.166,87.087,0,22.262-29.792,20.953-45.835-18.662-24.555-18.662-24.555Z" transform="translate(-183.103 -186.691)" fill="#695772"/>
            <path id="Path_8636" data-name="Path 8636" d="M198.266,367.76c2.46,11.319,10.937,25.866,35.32,30.624,40.27,7.857,70.224-9.678,79.719-23.756a30.225,30.225,0,0,0,3.524-6.868Z" transform="translate(-181.658 -179.678)" fill="#4a3852"/>
            <path id="Path_8637" data-name="Path 8637" d="M246.281,223.975s-32.193,8.731-38.3,11.787-8.949,28.81-14.624,34.485-10.913,20.516-7.422,30.339,23.573,2.183,23.573,2.183c.655,12.876-3.71,23.463-.109,31.647s-5.239,22.919-5.239,30.448-.655,20.3-2.618,22.919-10.477,31.757,29.792,39.614,75.627-4.256,85.122-18.334,2.291-23.573,2.291-34.376,2.615-17.68,2.617-26.846-3.6-18.007-1.962-25.21,4.911-21.607,4.911-21.607,5.893,7.857,18.662,8.511,18.334-18.334,9.494-33.066S339.7,256.824,336.1,249.949,324.746,235,321.908,233.579s-22.7-6.33-28.919-8.622S257.413,216.773,246.281,223.975Z" transform="translate(-184.806 -214.112)" fill="#f2e372"/>
            <path id="Path_8638" data-name="Path 8638" d="M321.548,299.607c-8.119-8.446-6.358-12.523-6.4-18.931s-1.44-34.333-3.959-39.009c-.56,18.04,1.12,28.233-3.64,40.758s-3.358,16.339-6.158,21.858-22.677,27.071-44.513,33.478c15.4-.582,36.736-14.7,41.465-15.939s6.469,11.862,0,18.268a181.568,181.568,0,0,0-17.109,20.722c18.477-15.189,15.739-13.44,17.109-5.286s2.489,20.667-.871,28.391c-1.112,2.557-.538,5.81-.146,9.676-7.614,7.56-28.747,23.5-66.624,16.4,16.815,5.623,44.691,8.252,66.721-8.736a26.349,26.349,0,0,1-6.312,14.162c6.987-3.392,12.189-7.519,14.989-11.838,8.9-13.723,2.147-22.978,2.147-33.509s2.449-17.234,2.452-26.17-3.372-17.553-1.838-24.575,4.6-21.063,4.6-21.063,5.521,7.66,17.486,8.3a10.421,10.421,0,0,0,8.842-4.075C339.431,302.676,329.519,307.9,321.548,299.607Z" transform="translate(-174.073 -209.164)" fill="#f2d65c"/>
            <path id="Path_8639" data-name="Path 8639" d="M218.49,309.17c2.909,1.793,21.591,9.86,33.394,10.24-9.708-4.1-27.637-12.928-33.394-20.567s.379-18.653,0-26.805-.817-24.415-5.6-26.805c2.39,10.158-1.494,32.268-4.88,44.219-3.349,11.825-19.3,9.153-19.634,9.1,6.784,3.573,20.289-1.56,20.289-1.56.655,12.876-3.71,23.463-.109,31.648s-5.239,22.917-5.239,30.446-.655,20.3-2.618,22.917c-1.643,2.191-7.861,22.936,13.717,34.26.407-3.848,1.75-8.059,5.7-7.9,7.232.3,17.269-6.574,8.306-13.744S211.1,371.614,213.49,362.352s.3-23.006,6.633-18.824,8.008,5.975,10.7,18.824c1.494-5.975,6.274-17.031-4.781-25.1S215.582,307.377,218.49,309.17Z" transform="translate(-183.97 -208.331)" fill="#f2d65c"/>
            <path id="Path_8640" data-name="Path 8640" d="M234.63,225.187s1.637-6.548,4.474-8.076,16.235-2.2,25.21-1.527,11.567,2.51,12.878,3.165,4.147,7.42,4.147,7.42S252.637,219.84,234.63,225.187Z" transform="translate(-173.155 -215.324)" fill="#ffffc2"/>
          </g>
        </g>
        <path id="Path_8641" data-name="Path 8641" d="M313.62,393.542c-2.073-8.075-9.24-8.713-13.095-6.875s-10.586,17.352-14.3,22.044-16.588,10.368-16.588,10.368c-1.922.888-7.881,1.746-7.857,5.593s3.028,5.074,7.283,5.156a6.119,6.119,0,0,0,1.975-.286c-.519,1.437-.109,2.987,3.018,2.987a6.094,6.094,0,0,0,1.945-.286,2.511,2.511,0,0,0-.39.45c-1.228,1.882-.573,3.764,3.438,3.846s4.584-2.291,6.14-2.824,1.964.042-.574,1.188-5.375,3.165-3.192,4.582,7.2,0,10.367-2.4a71.008,71.008,0,0,0,11.9-12.224C307.291,420.061,315.694,401.617,313.62,393.542Zm-37.514,31.784c.9-.573,2.374-.327,1.392.574a11.678,11.678,0,0,1-3.008,1.252A17.275,17.275,0,0,1,276.106,425.326Zm6.057,4.748c-1.072.643-3.018.763-4.581,1.3a9.978,9.978,0,0,1,2.371-1.787C281.918,428.763,283.8,429.091,282.163,430.073Z" transform="translate(-166.805 -175.456)" fill="#eeb294"/>
        <path id="Path_8642" data-name="Path 8642" d="M292.016,426.044s-11.925-2.241-16.694-11.429C275.547,421.114,284.846,428.4,292.016,426.044Z" transform="translate(-163.639 -168.721)" fill="#eaa486"/>
        <path id="Path_8643" data-name="Path 8643" d="M273.31,423.609a4.952,4.952,0,0,0,1.577-.874A4.3,4.3,0,0,0,273.31,423.609Z" transform="translate(-164.11 -166.822)" fill="#eeb294"/>
        <path id="Path_8644" data-name="Path 8644" d="M298.067,387.061c-3.935,3.539-9.914,17.036-13.332,21.358-1.534,1.94-4.636,4.044-7.745,5.85-3.913,2.19-8.572,4.4-8.821,4.509,2.27-.632,4.623,2.086,6.136.938.841-.465.139-4.328,5.393-5.463l.017,0C305.142,411.882,291.58,394.415,298.067,387.061Zm-20.242,27.33c.36-.021.712-.047,1.059-.074C278.54,414.35,278.155,414.381,277.825,414.391Z" transform="translate(-165.312 -175.165)" fill="#eaa486"/>
        <path id="Path_8645" data-name="Path 8645" d="M272.735,419.317c-1.386.484-2.786,1.048-3.212,1.857a4.144,4.144,0,0,0-.236.533A7.86,7.86,0,0,0,272.735,419.317Z" transform="translate(-165.05 -167.622)" fill="#eeb294"/>
      </g>
    </g>
  </g>
</svg>
