<svg xmlns="http://www.w3.org/2000/svg" width="93.048" height="63.054" viewBox="0 0 93.048 63.054">
  <g id="logo_welcome" transform="translate(-103.538 -10.773)">
    <g id="Group_48" data-name="Group 48" transform="translate(146.945 21.248)">
      <g id="Group_46" data-name="Group 46" transform="translate(0.394)">
        <path id="Path_592" data-name="Path 592" d="M432.2,119.629c2.385-.567,4.58-2.133,7.154-1.775.126.63.252,1.271.389,1.9-2.574-.357-4.759,1.208-7.154,1.775C432.452,120.9,432.326,120.259,432.2,119.629Z" transform="translate(-429.479 -115.901)"/>
        <path id="Path_593" data-name="Path 593" d="M431.9,118.029c2.385-.567,4.58-2.133,7.154-1.775.01.053.021.116.031.168-2.49-.347-4.622,1.114-6.923,1.723C432.068,118.1,431.984,118.06,431.9,118.029Z" transform="translate(-429.211 -114.469)" fill="#f0f0f0"/>
        <path id="Path_594" data-name="Path 594" d="M406.3,101.688c3.383.462,6.1-2.385,9.486-1.922l.347,1.733c-3.383-.462-6.1,2.385-9.486,1.922C406.531,102.833,406.415,102.266,406.3,101.688Z" transform="translate(-406.3 -99.715)" fill="#007168"/>
        <path id="Path_595" data-name="Path 595" d="M436,136.062c2.3-.609,4.433-2.059,6.923-1.712.011.063.021.116.032.179-2.574-.357-4.759,1.208-7.154,1.775C435.873,136.22,435.937,136.136,436,136.062Z" transform="translate(-432.701 -130.664)" fill="#f0f0f0"/>
        <path id="Path_596" data-name="Path 596" d="M418.985,137.729c2.385-.567,4.58-2.133,7.154-1.775l.347,1.733c-3.383-.462-6.1,2.385-9.486,1.922A10.325,10.325,0,0,0,418.985,137.729Z" transform="translate(-415.876 -132.1)" fill="#fce100"/>
        <path id="Path_597" data-name="Path 597" d="M406.3,118.5c.368,1.849.746,3.687,1.114,5.536a13.8,13.8,0,0,0,3.11-3.32A16.106,16.106,0,0,1,406.3,118.5Z" transform="translate(-406.3 -116.527)" fill="#d21034"/>
        <g id="Group_45" data-name="Group 45" transform="translate(0.641 3.738)">
          <path id="Path_598" data-name="Path 598" d="M414.48,137.275c-.263-.126-.515-.252-.788-.4-.2.189-.4.357-.6.515.042-.263.074-.525.116-.788-.263-.158-.536-.336-.809-.525a6.109,6.109,0,0,0,.872.031c.032-.273.063-.536.105-.809.137.263.284.515.42.767a7.864,7.864,0,0,0,.84-.158c-.189.221-.389.42-.578.62C414.2,136.771,414.343,137.023,414.48,137.275Z" transform="translate(-412.4 -135.3)" fill="#fce100"/>
          <path id="Path_599" data-name="Path 599" d="M418.9,144.192c.168,0,.336,0,.5-.01a.151.151,0,0,0,.21-.021.888.888,0,0,1,.452-.063c.01-.021.032-.053.042-.074-.074-.147-.158-.294-.231-.441-.021-.011-.042-.032-.063-.042a.676.676,0,0,0-.326,0,.552.552,0,0,1-.284.011,2.047,2.047,0,0,0-.231.053l-.053.063C418.91,143.846,418.9,144.014,418.9,144.192Z" transform="translate(-418.217 -142.658)" fill="#f0f0f0" stroke="#000" stroke-linecap="round" stroke-linejoin="round" stroke-width="1.24"/>
          <path id="Path_600" data-name="Path 600" d="M419.6,148.084c0,.01.473-.074.641.084a.162.162,0,0,1-.221.021c.011-.021.137-.189.546-.189" transform="translate(-418.844 -146.666)" fill="none" stroke="#000" stroke-linecap="round" stroke-linejoin="round" stroke-width="1.24"/>
          <path id="Path_601" data-name="Path 601" d="M423.6,144.1c.031.168.063.336.095.515" transform="translate(-422.423 -143.176)" fill="none" stroke="#000" stroke-width="0.992"/>
          <path id="Path_602" data-name="Path 602" d="M427.6,143.7c.053.126.116.263.168.389" transform="translate(-426.003 -142.818)" fill="none" stroke="#000" stroke-width="0.992"/>
          <path id="Path_603" data-name="Path 603" d="M419.51,144.3a1.413,1.413,0,0,1-.01.21" transform="translate(-418.754 -143.355)" fill="none" stroke="#000" stroke-linecap="round" stroke-linejoin="round" stroke-width="1.24"/>
          <path id="Path_604" data-name="Path 604" d="M414.994,137.771l.147.147a.032.032,0,0,0,.042,0c.042-.063.095-.126.137-.2a.991.991,0,0,0,.053-.084.064.064,0,0,0,.01-.042c.042-.042.074-.084.116-.126h.032a.023.023,0,0,1-.021-.021c.011-.01.021-.021.032-.021l.032.032s-.021.042-.032.042H415.5l-.063.063a.145.145,0,0,0,.042.032c.021.042.053.084.074.126.021-.011.032-.032.053-.042l-.063-.126.063-.095-.042-.042c0-.01.01-.021.01-.032s.326.158.431.105l-.021-.126s-.3,0-.326-.063.053-.063.053-.074l-.042-.042v-.021l.063.063c.032-.031.063-.074.095-.105.284.242.567.462.84.672.032-.021.042-.031.032-.074,0,.01-.819-.651-.819-.662s.031-.042.042-.063a.039.039,0,0,0,.01-.032c.021-.021.042-.053.063-.074.021,0,.042.021.063.032l.179-.21c.01,0,.021.011.032,0l.284-.41c-.105.116-.221.231-.336.347l-.01-.01c0-.01.01-.021-.011-.031s-.031.021-.042.021-.063-.011-.074-.032c0,.021.01.042.01.063-.031.032-.053.074-.084.105a.179.179,0,0,0-.074.01.808.808,0,0,0-.084.116.063.063,0,0,1-.01.042c.01.01.021.021.021.031l-.052.053-.011-.01c.011-.021.031-.032.042-.053v-.032c-.01-.01-.01-.021-.021-.021s-.052.074-.063.074-.231-.189-.231-.189v-.042a1.416,1.416,0,0,0-.147-.116c-.042-.011-.116-.011-.116.074-.01.021-.105,0-.105,0-.021,0-.031.01-.053.01-.063.126-.137.252-.2.368l.189.189c.084-.126.158-.252.242-.389,0-.032-.01-.074-.01-.105a.528.528,0,0,1,.084.074.133.133,0,0,0,.063-.011c.074.063.147.126.231.189-.011.011-.021.021-.021.032l.031.032c.011-.011.021-.021.032-.021l.021.021-.032.032a.1.1,0,0,1-.063-.063.677.677,0,0,0-.084.095v.021l-.263.263h-.032c0,.021.01.053.01.074.053-.053.116-.105.168-.168v-.021c.01.011.021.011.021.021a1.629,1.629,0,0,1,.137-.126l.01.01-.116.126v.011l-.021.021c-.01,0-.01-.011-.021-.011-.053.053-.105.116-.158.168h-.032c-.032.032-.052.063-.084.095a.089.089,0,0,0-.074.021A.56.56,0,0,0,414.994,137.771Z" transform="translate(-414.637 -136.195)" stroke="#000" stroke-linecap="round" stroke-linejoin="round" stroke-width="1.24"/>
        </g>
      </g>
      <g id="Group_47" data-name="Group 47" transform="translate(0.203 1.463)">
        <rect id="Rectangle_11" data-name="Rectangle 11" width="0.189" height="8.53" transform="translate(0 0.037) rotate(-11.431)" fill="#c8c8c8"/>
      </g>
      <ellipse id="Ellipse_2" data-name="Ellipse 2" cx="0.273" cy="0.273" rx="0.273" ry="0.273" transform="translate(0 1.372) rotate(-11.431)" fill="#f0f0f0"/>
    </g>
    <path id="Path_605" data-name="Path 605" d="M310.507,367.946H284.423a1.523,1.523,0,1,1,0-3.046h26.095a1.523,1.523,0,1,1-.01,3.046Z" transform="translate(-148.524 -315.794)"/>
    <path id="Path_606" data-name="Path 606" d="M327.487,209.257H307.443v19.319a1.057,1.057,0,0,1-1.943-.053V208.291a.975.975,0,0,1,.977-.977h.609V206.7a.969.969,0,0,1,.735-.945c-2.857-5.557,2.09-9.864,5.452-12.806,1.6-1.4,3.246-2.836,3.372-3.761v-.105a.977.977,0,1,1,1.954,0v.105c.126.924,1.775,2.364,3.372,3.761,3.362,2.931,8.31,7.249,5.452,12.806a.969.969,0,0,1,.735.945v.609h.609a.975.975,0,0,1,.977.977V228.45c-1.008,1.849-2.259.137-2.259.137V209.257m.315,0h-.609a.975.975,0,0,1-.977-.977v-.609h-.536a.973.973,0,0,1-.977-.966.952.952,0,0,1,.189-.578c3.372-4.507.378-7.69-4.212-11.7a23.914,23.914,0,0,1-3.068-2.983,24.777,24.777,0,0,1-3.078,2.983c-4.591,4.013-7.585,7.2-4.213,11.7a.966.966,0,0,1-.777,1.544h-.525v.609a.975.975,0,0,1-.977.977h-.6" transform="translate(-168.75 -157.567)"/>
    <path id="Path_607" data-name="Path 607" d="M234.761,188.926h-6.723a.957.957,0,0,1-.725-.326,4.369,4.369,0,0,1-1.282-3.2c.126-1.922,1.744-3.33,3.046-4.465a7.052,7.052,0,0,0,1.355-1.376.978.978,0,0,1,.977-.956h0a.98.98,0,0,1,.977.966,7.313,7.313,0,0,0,1.355,1.366c1.3,1.135,2.92,2.553,3.047,4.465a4.412,4.412,0,0,1-1.282,3.2A1.054,1.054,0,0,1,234.761,188.926Zm-6.261-1.943h5.8a2.179,2.179,0,0,0,.525-1.46c-.074-1.114-1.3-2.185-2.385-3.13-.378-.326-.735-.641-1.051-.956-.3.315-.672.63-1.05.956-1.082.945-2.311,2.017-2.385,3.13A2.328,2.328,0,0,0,228.5,186.983Z" transform="translate(-97.623 -149.065)" fill="#fce100"/>
    <path id="Path_608" data-name="Path 608" d="M236.877,277.719a.975.975,0,0,1-.977-.977V259.377a.977.977,0,1,1,1.954,0v17.365a.982.982,0,0,1-.977.977Z" transform="translate(-106.462 -220.482)" fill="#fce100"/>
    <path id="Path_609" data-name="Path 609" d="M300.877,263.773a.975.975,0,0,1-.977-.977v-3.519a.977.977,0,0,1,1.954,0V262.8A.982.982,0,0,1,300.877,263.773Z" transform="translate(-163.739 -220.393)" fill="#fce100"/>
    <path id="Path_610" data-name="Path 610" d="M523.461,188.926h-6.723a.957.957,0,0,1-.725-.326,4.37,4.37,0,0,1-1.282-3.2c.126-1.922,1.744-3.33,3.047-4.465a7.052,7.052,0,0,0,1.355-1.376.978.978,0,0,1,.977-.956h0a.98.98,0,0,1,.977.966,7.314,7.314,0,0,0,1.355,1.366c1.3,1.135,2.92,2.553,3.046,4.465a4.369,4.369,0,0,1-1.282,3.2A1.054,1.054,0,0,1,523.461,188.926Zm-6.261-1.943H523a2.179,2.179,0,0,0,.525-1.46c-.073-1.114-1.3-2.185-2.385-3.13-.378-.326-.735-.641-1.05-.956-.3.315-.672.63-1.05.956-1.082.945-2.311,2.017-2.385,3.13A2.328,2.328,0,0,0,517.2,186.983Z" transform="translate(-355.994 -149.065)" fill="#007168"/>
    <path id="Path_611" data-name="Path 611" d="M589.577,277.719a.975.975,0,0,1-.977-.977V259.377a.977.977,0,0,1,1.954,0v17.365a.989.989,0,0,1-.977.977Z" transform="translate(-422.11 -220.482)" fill="#007168"/>
    <path id="Path_612" data-name="Path 612" d="M525.577,263.773a.975.975,0,0,1-.977-.977v-3.519a.977.977,0,1,1,1.954,0V262.8A.975.975,0,0,1,525.577,263.773Z" transform="translate(-364.834 -220.393)" fill="#007168"/>
    <path id="Path_613" data-name="Path 613" d="M453.711,57.452S466.2,23.311,422.9,0c0,0,51.559,7.49,43.228,62.453Z" transform="translate(-270.453 10.773)" fill="#007168"/>
    <path id="Path_614" data-name="Path 614" d="M13.358,57.452S.867,23.311,44.169,0C44.169,0-7.39,7.49.941,62.453Z" transform="translate(103.508 11.374)" fill="#fce100"/>
  </g>
</svg>
