<svg xmlns="http://www.w3.org/2000/svg" xmlns:xlink="http://www.w3.org/1999/xlink" width="325" height="121" viewBox="0 0 325 121">
  <defs>
    <filter id="Rectangle_205" x="-12" y="-9" width="349" height="145" filterUnits="userSpaceOnUse">
      <feOffset dy="3" input="SourceAlpha"/>
      <feGaussianBlur stdDeviation="4" result="blur"/>
      <feFlood flood-opacity="0.102"/>
      <feComposite operator="in" in2="blur"/>
      <feComposite in="SourceGraphic"/>
    </filter>
    <clipPath id="clip-path">
      <g transform="matrix(1, 0, 0, 1, 0, 0)" filter="url(#Rectangle_205)">
        <rect id="Rectangle_205-2" data-name="Rectangle 205" width="325" height="121" rx="12" transform="translate(4687 -3375)" fill="#fff"/>
      </g>
    </clipPath>
    <radialGradient id="radial-gradient" cx="0.5" cy="0.5" r="0.5" gradientUnits="objectBoundingBox">
      <stop offset="0" stop-color="#007168"/>
      <stop offset="0.432" stop-color="#006e66"/>
      <stop offset="1" stop-color="#003934"/>
    </radialGradient>
  </defs>
  <g id="Main_rectangle_mosque" data-name="Main rectangle mosque" transform="translate(-4687 3375)" opacity="0.26" clip-path="url(#clip-path)">
    <path id="Path_3123" data-name="Path 3123" d="M246.492,133.127v-5.056h-5.179V87.5a.453.453,0,0,0,.123-.37c0-.247-.123-.493-.37-.493v-1.6l-.123.123v1.356h-.74V85.156c-.123-.37.37-.493.74-.74,0,.123.123.247.123.37v-.617h.247a.247.247,0,0,0,0-.493h-.247a3.152,3.152,0,0,0-.123-2.1,3.4,3.4,0,0,0-.863-1.11,8.659,8.659,0,0,1-1.11-.74v-.247a.382.382,0,0,0-.123-.247,22550.48,22550.48,0,0,0-.493-.493V78.5c.123,0,.123,0,.123-.123l-.123-.123v-.617L238.23,76.4l-.123,1.233v.617l-.123.123V78.5c.123,0,.123,0,.123.123v.123c-.123,0-.247.123-.37.247l-.247.247v.493l-1.11.74a3.4,3.4,0,0,0-.863,1.11,3.152,3.152,0,0,0-.123,2.1h-.247a.247.247,0,1,0,0,.493h.247v2.466c-.247,0-.37.247-.37.493,0,.123,0,.247.247.37v40.572h-3.33v-.863h.37a1.11,1.11,0,0,0,0-2.22h-.617c1.11-2.713,3.946-10.975.247-19.484a12.619,12.619,0,0,0-1.726-2.713V94.158c.123-.123.247-.247.247-.37a.819.819,0,0,0-.493-.617V91.445a.431.431,0,0,0-.123.247c-.123.123-.123.247,0,.247v1.233h-.863V91.938c.123,0,.123-.123,0-.247-.123-.493.493-.617.863-.863,0,.123.123.247.123.37v-.617h.247c.123,0,.37-.123.37-.247a.394.394,0,0,0-.37-.37h-.247a3.335,3.335,0,0,0,0-2.22,3.5,3.5,0,0,0-1.11-1.233,7.489,7.489,0,0,0-1.233-.863.382.382,0,0,1,.123-.247.431.431,0,0,1-.123-.247c0-.123-.123-.247-.247-.37a.453.453,0,0,0-.37-.123v-.247l.123-.123v-.123l-.123-.123v-.617l-.123-1.48-.123,1.48v.247h-.123a.121.121,0,0,0,.123.123v.247a.121.121,0,0,0-.123.123v.123a.121.121,0,0,0,.123.123v.247a.453.453,0,0,0-.37.123c-.123.123-.247.247-.247.37a.382.382,0,0,0-.123.247.431.431,0,0,0,.123.247c-.37.247-.863.493-1.357.863a4.828,4.828,0,0,0-.987,1.233,3.335,3.335,0,0,0,0,2.22h-.37c-.123,0-.247.123-.247.37a.265.265,0,0,0,.247.247h.247v2.59a.678.678,0,0,0-.37.617c0,.247.123.37.247.37v1.6a60.188,60.188,0,0,0-9.249-6.166c.123-.493.247-1.11.37-1.726a5.538,5.538,0,0,0-2.713-5.056,11.847,11.847,0,0,0-2.466-1.6l-.123-1.6c.247-.123.37-.37.493-.493a2.286,2.286,0,0,0,.247-.863,1.782,1.782,0,0,0-.247-.863,1.486,1.486,0,0,0-.617-.617V75.414l.37-.37a1.564,1.564,0,0,0,.123-.74,1.753,1.753,0,0,0-.247-.74c0-.123-.247-.247-.37-.37L209,71.714l-.37-10.852c0-.123-.123-.247-.37-.123-.123,0-.123,0-.123.123l-.493,10.852-.123,1.48-.37.37a1.753,1.753,0,0,0-.247.74c0,.247.123.493.123.74l.37.37V76.77a1.486,1.486,0,0,0-.617.617,1.782,1.782,0,0,0-.247.863,2.286,2.286,0,0,0,.247.863c.123.123.247.37.493.493l-.123,1.6a16.268,16.268,0,0,0-2.466,1.6,5.538,5.538,0,0,0-2.713,5.056c.123.617.247,1.233.37,1.726a65.377,65.377,0,0,0-7.646,4.933V67.521c.247,0,.247-.247.247-.37,0-.247-.123-.493-.37-.493V64.192h.247c.123,0,.247-.123.247-.37a.265.265,0,0,0-.247-.247h-.37a2.425,2.425,0,0,0,0-2.1,2.106,2.106,0,0,0-.987-1.11,6.778,6.778,0,0,0-1.11-.863v-.493c-.123-.123-.247-.247-.37-.247a.265.265,0,0,0-.247-.247v-.247l.123-.123a.121.121,0,0,1-.123-.123v-.617l-.123-1.356-.123,1.356v.247h-.123a.121.121,0,0,0,.123.123v.247h-.123v.247a.121.121,0,0,1,.123.123v.123c-.123,0-.247.123-.37.247-.123,0-.123.123-.247.247v.493c-.37.247-.74.493-1.233.863a2.486,2.486,0,0,0-.863,1.11,3.155,3.155,0,0,0-.123,2.1h-.247a.265.265,0,0,0-.247.247c0,.247.123.37.247.37h.247v2.466c-.247,0-.37.247-.37.493,0,.123,0,.37.247.37v32.556a19.788,19.788,0,0,0-3.823,5.426c-3.7,8.509-.863,16.771.247,19.484h-.493a1.116,1.116,0,1,0,0,2.22h.493v.863H182V110.313h-1.48v-5.549a1.879,1.879,0,0,0,.74-1.233,1.586,1.586,0,0,0-1.233-1.48V94.9h.617a.843.843,0,0,0,.863-.863.825.825,0,0,0-.863-.74h-.863a8.5,8.5,0,0,0-.123-6.289,9.809,9.809,0,0,0-2.713-3.33c-1.233-.863-2.466-1.726-3.453-2.343a.932.932,0,0,1,.123-.493,2.9,2.9,0,0,0-.247-.987,2.311,2.311,0,0,0-.74-.863c-.247-.247-.617-.37-.863-.617V77.88a22285.719,22285.719,0,0,1,.247-.493.431.431,0,0,0-.123-.247c-.123-.123-.123-.247-.247-.247V76.4a.121.121,0,0,0,.123-.123c0-.123.123-.123.123-.247s-.123-.123-.123-.247a.121.121,0,0,0-.123-.123v-.493l-.247-3.823h-.123l-.247,3.823v.493a.121.121,0,0,0-.123.123v.493l.123.123v.493c-.123,0-.123.123-.247.247v.493a.431.431,0,0,0,.123.247v.493a5.219,5.219,0,0,1-.863.617,2.31,2.31,0,0,0-.74.863,1.392,1.392,0,0,0-.123.987v.493c-.987.617-2.22,1.48-3.453,2.343a9.809,9.809,0,0,0-2.713,3.33,9.165,9.165,0,0,0-.123,6.289h-.74a.711.711,0,0,0-.74.74c0,.493.247.863.74.863h.617v7.152a1.481,1.481,0,0,0-1.11,1.48,1.712,1.712,0,0,0,.617,1.233v5.549h-2.96v-3.33h-.37c.37-.123.74-.247.74-.617a.825.825,0,0,0-.74-.863v-4.193h.37a.53.53,0,0,0,.493-.493c0-.247-.247-.37-.493-.37h-.493a4.824,4.824,0,0,0-.123-3.7,6.5,6.5,0,0,0-1.48-1.85c-.74-.493-1.48-.987-1.973-1.356v-.37a.932.932,0,0,0-.123-.493c0-.123-.247-.37-.37-.493a1.7,1.7,0,0,1-.493-.37l-.123-.247.123-.123v-.37a.121.121,0,0,0-.123-.123v-.247l.123-.123v-.247a.121.121,0,0,1-.123-.123v-.247L154,87.746h-.123l-.123,2.22v.37a.123.123,0,0,0,0,.247v.37l-.123.123v.37a.121.121,0,0,1,.123.123v.247c-.123.123-.37.247-.493.37-.247.123-.37.37-.493.493a.932.932,0,0,0-.123.493c0,.123.123.247.123.37A18.823,18.823,0,0,0,150.8,94.9a5.377,5.377,0,0,0-1.6,1.85,5.482,5.482,0,0,0-.123,3.7h-.37c-.247,0-.493.123-.493.37a.531.531,0,0,0,.493.493h.37V105.5c-.493,0-.74.37-.74.863,0,.37.37.493.617.617H148.7v3.33h-3.453c1.48-3.946,4.07-13.2-.123-22.814-1.726-4.069-5.426-7.892-9.5-11.345a109.525,109.525,0,0,0-12.085-8.139c.123-.617.247-1.233.37-2.1a7.775,7.775,0,0,0-.617-3.206,8.9,8.9,0,0,0-2.713-3.083,31.576,31.576,0,0,0-3.083-1.973v-1.85a2.58,2.58,0,0,0,.493-.74,1.329,1.329,0,0,0,.247-.987A1.833,1.833,0,0,0,118,52.97a3.27,3.27,0,0,0-.617-.74l-.123-1.6c.123-.123.247-.37.37-.493a1.782,1.782,0,0,0,.247-.863,2.286,2.286,0,0,0-.247-.863.963.963,0,0,0-.493-.493l-.123-1.85-.617-13.072a6.566,6.566,0,0,0,3.7-.863,5.29,5.29,0,0,0,2.59-2.836,3.637,3.637,0,0,1-1.726,1.6,6.134,6.134,0,1,1-6.166-10.605,7.439,7.439,0,0,1,2.343-.74,6.741,6.741,0,0,0-3.823.863,6.606,6.606,0,0,0-2.466,9.249,6.853,6.853,0,0,0,4.933,3.33l-.493,13.072-.123,1.85a.963.963,0,0,0-.493.493,2.286,2.286,0,0,0-.247.863,1.829,1.829,0,0,0,.123.863l.493.493-.123,1.6a3.27,3.27,0,0,0-.617.74,1.989,1.989,0,0,0-.37,1.11,1.4,1.4,0,0,0,.37.987,2.58,2.58,0,0,0,.493.74l-.123,1.85c-.74.493-1.973,1.233-2.96,1.973a8.9,8.9,0,0,0-2.713,3.083,7.774,7.774,0,0,0-.617,3.206,9.169,9.169,0,0,0,.37,2.1,109.526,109.526,0,0,0-12.085,8.139c-4.069,3.453-7.769,7.276-9.5,11.345-4.316,9.619-1.6,18.868-.123,22.814H83.589v-3.33h-.37c.37-.123.74-.247.74-.617a.825.825,0,0,0-.74-.863v-4.193h.37a.53.53,0,0,0,.493-.493c0-.247-.247-.37-.493-.37H83.1a4.824,4.824,0,0,0-.123-3.7,6.5,6.5,0,0,0-1.48-1.85c-.74-.493-1.48-.987-1.973-1.356v-.37a.932.932,0,0,0-.123-.493c0-.123-.247-.37-.37-.493a1.7,1.7,0,0,1-.493-.37l-.123-.247.123-.123c0-.123.123-.123.123-.247l-.123-.123a.121.121,0,0,0-.123-.123v-.247l.123-.123v-.247a.121.121,0,0,1-.123-.123v-.247l-.123-2.22h-.123l-.123,2.22v.37a.123.123,0,1,0,0,.247v.37l-.123.123v.37a.121.121,0,0,1,.123.123v.247c-.123.123-.37.247-.493.37-.247.123-.37.37-.493.493a.932.932,0,0,0-.123.493c0,.123.123.247.123.37A18.823,18.823,0,0,0,75.08,94.9a5.377,5.377,0,0,0-1.6,1.85,5.482,5.482,0,0,0-.123,3.7h-.37c-.247,0-.493.123-.493.37a.531.531,0,0,0,.493.493h.37V105.5c-.493,0-.74.37-.74.863,0,.37.37.493.617.617h-.247v3.33h-2.96v-5.549a1.712,1.712,0,0,0,.617-1.233,1.481,1.481,0,0,0-1.11-1.48V94.9h.617a.825.825,0,0,0,.74-.863.8.8,0,0,0-.74-.74h-.863a9.164,9.164,0,0,0-.123-6.289,10.238,10.238,0,0,0-2.836-3.33,28.46,28.46,0,0,0-3.453-2.343C63,81.21,63,81.086,63,80.84a2.715,2.715,0,0,0-.123-.987,4.6,4.6,0,0,0-.74-.863,6.884,6.884,0,0,1-.987-.617V77.88c.123,0,.123-.123.247-.247v-.247c0-.123,0-.247-.123-.247,0-.123,0-.247-.123-.247V76.4a.121.121,0,0,1,.123-.123v-.493c-.123-.123-.123-.123-.247-.123v-.493L60.9,71.344c0-.123,0-.123-.123-.123a.121.121,0,0,0-.123.123l-.123,3.823v.493c-.123,0-.123,0-.123.123-.123.123-.123.123-.123.247s0,.123.123.247a.121.121,0,0,0,.123.123l-.123.493a.43.43,0,0,0-.123.247c-.123,0-.123.123-.123.247s0,.247.123.247a.431.431,0,0,0,.123.247v.493c-.247.247-.617.37-.863.617a5.7,5.7,0,0,0-.863.863,2.715,2.715,0,0,0-.123.987c0,.247.123.37.123.493-.987.617-2.343,1.48-3.453,2.343a8.135,8.135,0,0,0-2.836,9.619h-.74a.825.825,0,0,0-.863.74.843.843,0,0,0,.863.863h.617v7.152a1.465,1.465,0,0,0-1.233,1.48,1.879,1.879,0,0,0,.74,1.233v5.549h-1.48v17.758H47.58v-.863h.247a1.11,1.11,0,0,0,0-2.22h-.617c1.233-2.713,4.069-10.975.37-19.484a19.789,19.789,0,0,0-3.823-5.426V67.521c.123,0,.247-.247.247-.37,0-.247-.123-.493-.37-.493V64.192h.247c.123,0,.247-.123.247-.37a.265.265,0,0,0-.247-.247h-.37a2.976,2.976,0,0,0,0-2.1,4.253,4.253,0,0,0-.987-1.11c-.37-.37-.863-.617-1.11-.863v-.123a.453.453,0,0,0-.123-.37.265.265,0,0,0-.247-.247l-.247-.247v-.863c0-.123,0-.123-.123-.123v-1.48h-.123v1.48l-.123.123v.123h.123v.247h-.123v.247l.123.247c-.123,0-.247.123-.37.247a.265.265,0,0,0-.247.247c0,.123-.123.247-.123.37a.121.121,0,0,1,.123.123,7.488,7.488,0,0,0-1.233.863,2.486,2.486,0,0,0-.863,1.11,2.535,2.535,0,0,0-.123,2.1h-.247a.265.265,0,0,0-.247.247c0,.247.123.37.247.37h.247v.493c0-.123,0-.123.123-.247.37.247.987.247.74.74v.247a.382.382,0,0,1,.123.247v.987h-.863V65.425c.123,0,.123-.123,0-.247s-.123-.123-.123-.247v1.726c-.247,0-.37.247-.37.493,0,.123,0,.37.123.37V94.528A55.734,55.734,0,0,0,29.946,89.6a7.279,7.279,0,0,0,.247-1.726,4.919,4.919,0,0,0-.37-2.59,10.321,10.321,0,0,0-2.22-2.466,16.266,16.266,0,0,0-2.466-1.6l-.123-1.6c.247-.123.37-.37.493-.493a2.286,2.286,0,0,0,.247-.863,1.782,1.782,0,0,0-.247-.863c-.247-.247-.37-.493-.617-.617V75.414c.123-.123.247-.247.247-.37a1.233,1.233,0,0,0,0-1.48l-.37-.37-.123-1.48L24.15,60.862c0-.123-.123-.247-.247-.123-.123,0-.247,0-.247.123l-.493,10.852v1.48a1.7,1.7,0,0,0-.493.37,2.281,2.281,0,0,0,0,1.48l.37.37V76.77a1.486,1.486,0,0,0-.617.617,1.782,1.782,0,0,0-.247.863,2.286,2.286,0,0,0,.247.863c.123.123.247.37.37.493v1.6a11.846,11.846,0,0,0-2.466,1.6,6.853,6.853,0,0,0-2.22,2.466,6.851,6.851,0,0,0-.493,2.59,7.113,7.113,0,0,0,.37,1.726,60.188,60.188,0,0,0-9.249,6.166v-1.6c.123-.123.247-.247.247-.37a.678.678,0,0,0-.37-.617v-2.59h.247a.265.265,0,0,0,.247-.247c0-.247-.123-.37-.247-.37h-.37a3.335,3.335,0,0,0,0-2.22,3.5,3.5,0,0,0-1.11-1.233,7.488,7.488,0,0,0-1.233-.863.382.382,0,0,1,.123-.247.431.431,0,0,1-.123-.247c0-.123-.123-.247-.247-.37a.453.453,0,0,0-.37-.123v-.247l.123-.123v-.123l-.123-.123v-.617l-.123-1.48-.123,1.48v.247H5.159a.121.121,0,0,0,.123.123v.247l-.123.123v.123a.121.121,0,0,0,.123.123v.247a.453.453,0,0,0-.37.123c-.123.123-.247.247-.247.37a.382.382,0,0,0-.123.247.431.431,0,0,0,.123.247c-.37.247-.863.493-1.357.863a4.829,4.829,0,0,0-.987,1.233,3.335,3.335,0,0,0,0,2.22H2.076a.327.327,0,0,0-.37.37c0,.123.123.247.37.247h.247V91.2c0-.123.123-.247.123-.37.37.247.987.37.74.863v.247a.382.382,0,0,1,.123.247v.987H2.446V91.938c.123,0,.123-.123,0-.247a.431.431,0,0,0-.123-.247v1.726a.819.819,0,0,0-.493.617c0,.123.123.247.247.37v8.632A12.618,12.618,0,0,0,.35,105.5c-3.7,8.509-.863,16.771.247,19.484H-.02a1.105,1.105,0,0,0-1.11,1.11,1.105,1.105,0,0,0,1.11,1.11H.6v.863H-2.98V87.5c.123-.123.247-.247.247-.37,0-.247-.123-.493-.37-.493V84.169h.247a.265.265,0,0,0,.247-.247.265.265,0,0,0-.247-.247h-.37a3.014,3.014,0,0,0,0-2.1,3.4,3.4,0,0,0-.863-1.11,10.845,10.845,0,0,1-1.233-.74.431.431,0,0,0,.123-.247.431.431,0,0,1-.123-.247.265.265,0,0,0-.247-.247l-.247-.247V78.25H-5.94v-.123A.121.121,0,0,0-5.816,78V77.88l-.123-.123V76.4h-.123v1.48c-.123,0-.123,0-.123.123l.123.123v.123h-.123v.493l-.247.247a.265.265,0,0,0-.247.247v.493l-1.11.74a4,4,0,0,0-.987,1.11,3.014,3.014,0,0,0,0,2.1h-.247a.265.265,0,0,0-.247.247.265.265,0,0,0,.247.247h.247v.617c0-.123.123-.247.123-.37.37.247.863.37.74.74-.123.123-.123.247,0,.247v1.11h-.74v-.863a.171.171,0,0,1,0-.247v-.247c0-.123,0-.123-.123-.247v1.726a.53.53,0,0,0-.493.493c0,.123.123.247.247.37v40.572h-5.3v5.056H-23.2v68.935h278.7V133.127ZM-5.076,85.156v1.356h-1.85v-.863A.382.382,0,0,1-6.8,85.4v-.247c-.247-.493.74-.493.863-.987.123.493.863.493.863.863Zm1.85.493v.863H-4.09v-.863a.382.382,0,0,1,.123-.247v-.247c-.123-.37.37-.493.617-.74.247.247.123.493,0,.74,0,.123,0,.247.123.247Zm9.742,7.522h-2.1V91.938c.123,0,.123-.123,0-.247-.247-.617.863-.617.987-1.11.123.493.987.493.987.987v.37a.382.382,0,0,1,.123.247Zm1.973,0H7.5v-.987a.382.382,0,0,1,.123-.247v-.247c-.247-.493.37-.617.74-.863.247.247.123.493,0,.863v.247a.382.382,0,0,1,.123.247ZM41.661,66.658H39.688V65.425c.123,0,.123-.123,0-.247-.123-.617.863-.617.987-.987.123.37.863.37.863.863v.37a.382.382,0,0,1,.123.247Zm1.85,0h-.863V65.425c.123,0,.123-.123,0-.247-.123-.493.493-.493.74-.74.247.123.123.37,0,.74v.247a.382.382,0,0,1,.123.247ZM55.1,102.051H52.636V99.214a.435.435,0,0,1,.123-.493c.247-.37.123-.493,0-.863-.247-.987-.493-1.726,0-2.22.987.617,2.59.863,2.1,2.22a1.053,1.053,0,0,0,0,.863.764.764,0,0,1,.247.493Zm8.632,0H58.062V99.214a.435.435,0,0,1,.123-.493c.247-.37.123-.493,0-.863-.617-1.726,2.343-1.6,2.713-2.96.247,1.233,2.713,1.233,2.713,2.466,0,.247-.123.37-.123.493a1.053,1.053,0,0,0,0,.863.764.764,0,0,1,.247.493Zm5.426-2.836v2.836H66.695V99.214a.435.435,0,0,1,.123-.493c.247-.37.123-.493,0-.863-.493-1.356,1.233-1.6,2.1-2.343.493.617.37,1.357,0,2.343a1.053,1.053,0,0,0,0,.863A.764.764,0,0,1,69.161,99.214Zm5.8,6.166h-1.48v-1.6a.382.382,0,0,1,.123-.247c.123-.123.123-.247,0-.493a1.72,1.72,0,0,1,0-1.356c.617.493,1.48.617,1.233,1.356-.123.247-.123.37,0,.493a.382.382,0,0,1,.123.247Zm4.933,0H76.684v-1.6a.171.171,0,0,1,0-.247c.123-.123.123-.247.123-.493-.37-.987,1.233-.987,1.48-1.726.247.617,1.48.74,1.48,1.48v.247c0,.247-.123.37,0,.493a.382.382,0,0,1,.123.247Zm3.206,0h-1.48v-1.6a.382.382,0,0,1,.123-.247c.123-.123,0-.247,0-.493-.247-.74.617-.863,1.233-1.356a1.72,1.72,0,0,1,0,1.356c-.123.247-.123.37,0,.493a.382.382,0,0,1,.123.247Zm67.578,0h-1.48v-1.6a.382.382,0,0,1,.123-.247c.123-.123.123-.247,0-.493a1.72,1.72,0,0,1,0-1.356c.617.493,1.48.617,1.233,1.356-.123.247-.123.37,0,.493a.382.382,0,0,1,.123.247Zm4.933,0H152.4v-1.6a.171.171,0,0,1,0-.247c.123-.123.123-.247.123-.493-.37-.987,1.233-.987,1.48-1.726.123.617,1.48.74,1.48,1.48v.247c0,.247-.123.37,0,.493a.382.382,0,0,1,.123.247Zm3.206,0h-1.48v-1.6a.382.382,0,0,1,.123-.247c.123-.123,0-.247,0-.493-.247-.74.617-.863,1.233-1.356a1.72,1.72,0,0,1,0,1.356c-.123.247-.123.37,0,.493a.382.382,0,0,1,.123.247Zm6.782-3.33h-2.466V99.214a.764.764,0,0,1,.247-.493,1.053,1.053,0,0,0,0-.863c-.37-.987-.493-1.726,0-2.22.863.617,2.466.863,1.973,2.22,0,.37-.123.493.123.863a1.229,1.229,0,0,1,.123.493Zm8.632,0h-5.673V99.214a1.229,1.229,0,0,1,.123-.493c.247-.37.123-.493.123-.863-.74-1.726,2.22-1.6,2.59-2.96.37,1.233,2.713,1.233,2.713,2.466a.932.932,0,0,1-.123.493c0,.37-.123.493.123.863a1.229,1.229,0,0,1,.123.493Zm5.3-3.33a1.229,1.229,0,0,1,.123.493v2.836h-2.466V99.214a1.229,1.229,0,0,1,.123-.493c.247-.37.123-.493.123-.863-.493-1.356,1.11-1.6,1.973-2.343.617.617.37,1.357,0,2.343C179.407,98.228,179.284,98.351,179.531,98.721Zm10.112-32.063h-.863v-.987a.382.382,0,0,1,.123-.247v-.247c-.123-.37-.247-.617,0-.74.247.247.863.247.617.74v.247a.382.382,0,0,1,.123.247Zm2.96,0h-1.973v-.987a.382.382,0,0,1,.123-.247v-.247c-.247-.617.74-.617.863-.987.123.37.863.37.863.863v.37a.382.382,0,0,1,.123.247Zm1.85-.987v.987h-.863v-.987a.382.382,0,0,1,.123-.247v-.247c-.247-.493.37-.493.617-.74.247.123.123.37,0,.74,0,.123,0,.247.123.247Zm30.336,27.5H223.8v-.987a.382.382,0,0,1,.123-.247v-.247c-.123-.37-.247-.617,0-.863.37.247.863.37.74.863v.247a.382.382,0,0,1,.123.247Zm3.083-1.48c-.123.123-.123.247,0,.247v1.233h-2.1v-.987a.382.382,0,0,1,.123-.247v-.247c-.247-.617.863-.617.987-1.11.123.493.987.493.987.987Zm8.509-5.179h-.863V85.4c.123,0,.123-.123,0-.247,0-.247-.123-.493,0-.74.37.247.863.37.74.74V85.4a.382.382,0,0,1,.123.247Zm2.836,0h-1.973v-.863a.382.382,0,0,1,.123-.247v-.247c-.247-.493.74-.493.863-.987.123.493.863.493.863.863v.37a.382.382,0,0,1,.123.247Z" transform="translate(4733.354 -3381.794)" fill="url(#radial-gradient)"/>
  </g>
</svg>
