<svg xmlns="http://www.w3.org/2000/svg" width="23.287" height="25.26" viewBox="0 0 23.287 25.26">
  <g id="Group_7256" data-name="Group 7256" transform="translate(-704 -1011)">
    <path id="Path_659" data-name="Path 659" d="M-154.892,165.8a.575.575,0,0,1,.251.548c-.011.477-.012.954,0,1.431a.745.745,0,0,0,.122.381c.531.771,1.082,1.53,1.608,2.305a1.027,1.027,0,0,1,.165.521c.019.657.008,1.316.008,1.973v.262c.5.095.555.158.555.651q0,.58,0,1.16c0,.418-.09.515-.555.56,0,.188,0,.381,0,.574a1.862,1.862,0,0,1-.028.342.332.332,0,0,1-.358.277.325.325,0,0,1-.345-.291c-.024-.2-.02-.409-.026-.614,0-.09,0-.179,0-.286h-3.036v13.127h3.036V188.4q0-4.983,0-9.965a2.423,2.423,0,0,1,.012-.295.349.349,0,0,1,.357-.34.355.355,0,0,1,.377.346,2.181,2.181,0,0,1,.011.3q0,4.971,0,9.941v.331c.063.009.108.017.155.022a.384.384,0,0,1,.4.434q.009.727,0,1.455c0,.294-.15.431-.452.432q-2.38,0-4.76,0c-.316,0-.453-.138-.456-.451,0-.436,0-.871,0-1.307s.081-.534.533-.575V175.6c-.049-.008-.1-.02-.156-.024a.36.36,0,0,1-.372-.38c-.01-.518-.011-1.036,0-1.554.006-.271.139-.363.547-.4v-.261c0-.633.01-1.267,0-1.9a1.1,1.1,0,0,1,.229-.706q.794-1.1,1.561-2.218a.747.747,0,0,0,.121-.381q.021-.727,0-1.455a.531.531,0,0,1,.255-.518Zm-.113,2.979a.4.4,0,0,0-.066.055c-.469.664-.94,1.326-1.4,2a.569.569,0,0,0-.073.3c-.007.55,0,1.1,0,1.651v.461h.276c0-.3.007-.6,0-.891a.562.562,0,0,1,.247-.505c.238-.176.467-.363.7-.542a.413.413,0,0,1,.618,0c.229.173.451.357.684.525a.6.6,0,0,1,.262.548c-.01.284,0,.569,0,.872l.269-.018c0-.75,0-1.473,0-2.2a.382.382,0,0,0-.062-.205C-154.037,170.15-154.521,169.467-155.005,168.78Zm-2.088,21.518h4.148v-.8h-4.148Zm0-15.481h4.148v-.8h-4.148Zm1.593-1.563c.281,0,.55,0,.82,0a1.367,1.367,0,0,0,.137-.014c.122-.711.053-.883-.456-1.188C-155.622,172.251-155.562,172.734-155.5,173.253Z" transform="translate(879.466 845.199)" fill="#d3d3d3"/>
    <path id="Path_660" data-name="Path 660" d="M-195.414,180.611c.516.528,1.011,1.044,1.519,1.548a.766.766,0,0,1,.245.588q-.008,3.983,0,7.967c0,.45-.116.563-.572.563h-15.958c-.475,0-.581-.105-.581-.577q0-3.971,0-7.942a.791.791,0,0,1,.253-.61c.5-.5.991-1.008,1.49-1.519a8.916,8.916,0,0,1-.508-.969,2.954,2.954,0,0,1,.967-3.756,22.354,22.354,0,0,1,4.074-2.482c.563-.286,1.133-.561,1.713-.811.33-.142.159-.4.193-.608s-.149-.154-.254-.178a3,3,0,0,1-2.3-2.619,2.946,2.946,0,0,1,1.773-2.946,1.215,1.215,0,0,1,.42-.133.7.7,0,0,1,.439.111.333.333,0,0,1,0,.471,1.854,1.854,0,0,0-.371,1.246,1.808,1.808,0,0,0,2.74,1.409c.2-.127.4-.311.644-.124s.129.45.048.676a2.81,2.81,0,0,1-2.125,1.89c-.209.047-.262.122-.276.332a.481.481,0,0,0,.35.542,30.892,30.892,0,0,1,4.68,2.518,11.319,11.319,0,0,1,1.3,1.02,2.693,2.693,0,0,1,.875,2.606A4.448,4.448,0,0,1-195.414,180.611Zm.995,9.906c.006-.089.014-.161.014-.233q0-3.687-.006-7.374a.539.539,0,0,0-.145-.337c-.423-.437-.867-.854-1.289-1.291a.729.729,0,0,0-.579-.244c-2.162.01-4.324.006-6.486,0a1.559,1.559,0,0,1-.318-.024.306.306,0,0,1-.273-.351.633.633,0,0,1,.257-.341.636.636,0,0,1,.335-.038c2.178,0,4.357,0,6.535,0a.457.457,0,0,0,.436-.239,3.608,3.608,0,0,0,.578-1.553,1.85,1.85,0,0,0-.306-1.309,5.245,5.245,0,0,0-1.526-1.344,33.744,33.744,0,0,0-4.881-2.611.386.386,0,0,0-.292.008c-1.162.576-2.331,1.138-3.473,1.751a12.378,12.378,0,0,0-2.5,1.7,2.008,2.008,0,0,0-.744,1.624,3.326,3.326,0,0,0,.607,1.746.445.445,0,0,0,.418.225c1.019-.011,2.038-.007,3.058,0,.3,0,.48.152.475.384s-.171.359-.463.371c-.066,0-.131,0-.2,0-.97,0-1.94,0-2.91,0a.522.522,0,0,0-.41.171c-.449.457-.915.9-1.359,1.361a.572.572,0,0,0-.148.36q-.013,3.662-.006,7.324c0,.087.008.174.012.255h5.157v-.289c0-1.192.005-2.384,0-3.576a.763.763,0,0,1,.244-.588c.68-.68,1.35-1.371,2.024-2.056.294-.3.451-.3.742,0,.687.7,1.369,1.4,2.059,2.091a.69.69,0,0,1,.214.526c-.006,1.208,0,2.417,0,3.625v.278Zm-9.67,0h3.754a1.278,1.278,0,0,0,.015-.133c0-1.208,0-2.415,0-3.623a.446.446,0,0,0-.126-.271c-.449-.469-.907-.929-1.361-1.391l-.337-.345c-.613.582-1.2,1.144-1.794,1.7a.479.479,0,0,0-.161.387c.006,1.142,0,2.284,0,3.425C-204.1,190.343-204.094,190.422-204.089,190.514Zm3.526-20.157a2.59,2.59,0,0,1-2.331-.739,2.551,2.551,0,0,1-.7-2.348,2.144,2.144,0,0,0-.749,2.163,2.115,2.115,0,0,0,1.651,1.644A2.052,2.052,0,0,0-200.563,170.357Z" transform="translate(914.77 844.982)" fill="#d3d3d3"/>
    <path id="Path_661" data-name="Path 661" d="M-173.119,219.391c-.394,0-.788,0-1.183,0-.329,0-.461-.136-.463-.467,0-.624,0-1.248,0-1.872a.534.534,0,0,1,.226-.464c.385-.294.767-.592,1.149-.889a.414.414,0,0,1,.561,0c.4.308.8.6,1.181.928a.6.6,0,0,1,.189.4c.02.64.012,1.281.008,1.921,0,.31-.141.444-.459.448C-172.314,219.395-172.717,219.391-173.119,219.391Zm.009-2.962c-.281.217-.547.421-.81.63-.041.033-.092.087-.093.132-.007.48,0,.959,0,1.438h1.819c0-.481,0-.947,0-1.412a.245.245,0,0,0-.094-.156C-172.559,216.85-172.827,216.648-173.111,216.429Z" transform="translate(890.75 811.983)" fill="#d3d3d3"/>
    <path id="Path_662" data-name="Path 662" d="M-203.657,219.391c-.394,0-.788,0-1.182,0-.329,0-.462-.136-.463-.467,0-.624-.014-1.249.009-1.872a.675.675,0,0,1,.2-.44c.371-.323.772-.611,1.161-.913a.413.413,0,0,1,.561,0c.389.3.788.592,1.162.912a.64.64,0,0,1,.206.414c.022.64.013,1.281.009,1.921,0,.311-.14.444-.458.448C-202.852,219.4-203.255,219.391-203.657,219.391Zm.009-2.962c-.282.218-.561.431-.836.649a.183.183,0,0,0-.069.119c0,.473,0,.946,0,1.428h1.82c0-.477,0-.935,0-1.393a.272.272,0,0,0-.1-.177C-203.1,216.845-203.37,216.644-203.648,216.43Z" transform="translate(911.126 811.982)" fill="#d3d3d3"/>
    <rect id="Rectangle_25" data-name="Rectangle 25" width="2.697" height="0.749" transform="translate(709.685 1025.274)" fill="#d3d3d3"/>
    <rect id="Rectangle_26" data-name="Rectangle 26" width="0.763" height="2.773" transform="translate(725.971 1021.288)" fill="#d3d3d3"/>
  </g>
</svg>
