<svg xmlns="http://www.w3.org/2000/svg" width="23.182" height="23.182" viewBox="0 0 23.182 23.182">
  <g id="Mute_icon" data-name="Mute icon" transform="translate(1.061 1.061)">
    <path id="Path_648" data-name="Path 648" d="M18.717,31.5a1.915,1.915,0,0,1-3.312,0" transform="translate(-6.531 -12.354)" fill="none" stroke="#007168" stroke-linecap="round" stroke-linejoin="round" stroke-width="1.5"/>
    <path id="Path_649" data-name="Path 649" d="M27.6,16.787A17.127,17.127,0,0,1,27,12" transform="translate(-10.724 -5.299)" fill="none" stroke="#007168" stroke-linecap="round" stroke-linejoin="round" stroke-width="1.5"/>
    <path id="Path_650" data-name="Path 650" d="M7.621,9.39a5.61,5.61,0,0,0-.249,1.666c0,6.7-2.872,8.616-2.872,8.616H17.9" transform="translate(-2.585 -4.354)" fill="none" stroke="#007168" stroke-linecap="round" stroke-linejoin="round" stroke-width="1.5"/>
    <path id="Path_651" data-name="Path 651" d="M21.937,8.739a5.744,5.744,0,0,0-8.932-4.787" transform="translate(-5.662 -2.038)" fill="none" stroke="#007168" stroke-linecap="round" stroke-linejoin="round" stroke-width="1.5"/>
    <path id="Path_652" data-name="Path 652" d="M1.5,1.5,22.561,22.561" transform="translate(-1.5 -1.5)" fill="none" stroke="#007168" stroke-linecap="round" stroke-linejoin="round" stroke-width="1.5"/>
  </g>
</svg>
