<svg xmlns="http://www.w3.org/2000/svg" width="36.273" height="36.317" viewBox="0 0 36.273 36.317">
  <g id="number_icon" data-name="number icon" transform="translate(-33.096 -135.087)">
    <g id="Group_7203" data-name="Group 7203" transform="translate(-615.917 -148.192)">
      <path id="Path_8804" data-name="Path 8804" d="M720.2,355.049a6.644,6.644,0,0,1,.353,2.119c0,.768-.288,1.478-.327,2.239-.065,1.256,1.012,1.629,2.037,1.616l-.132.7a4.6,4.6,0,0,0,.725-.179,1.154,1.154,0,0,1-.165-.7c.031-.6.259-1.162.258-1.769a5.247,5.247,0,0,0-.278-1.674,4.919,4.919,0,0,0-.336-.789l0-.009.009,0a4.927,4.927,0,0,0,.789.335,5.248,5.248,0,0,0,1.674.278c.607,0,1.167-.227,1.769-.258a1.207,1.207,0,0,1,.617.115,4.625,4.625,0,0,0,.139-.652l-.575.108c.013-1.025-.36-2.1-1.615-2.037-.761.039-1.471.328-2.239.327a6.643,6.643,0,0,1-2.119-.353,6.236,6.236,0,0,1-1-.425l-.011-.006.006.011A6.222,6.222,0,0,1,720.2,355.049Z" transform="translate(-64.797 -64.797)" fill="none" stroke="#007168" stroke-width="0.5"/>
      <path id="Path_8805" data-name="Path 8805" d="M656.617,474.746l.4.587a4.6,4.6,0,0,0,.387-.638,1.155,1.155,0,0,1-.614-.381c-.4-.447-.638-1.005-1.068-1.433a5.246,5.246,0,0,0-1.38-.987,4.926,4.926,0,0,0-.795-.32l-.009,0,.009,0a4.92,4.92,0,0,0,.795-.32,5.247,5.247,0,0,0,1.38-.987c.43-.428.665-.986,1.068-1.433a1.205,1.205,0,0,1,.518-.355,4.606,4.606,0,0,0-.363-.559l-.33.483c-.716-.734-1.74-1.232-2.583-.3-.51.566-.808,1.272-1.352,1.814a6.642,6.642,0,0,1-1.748,1.249,6.223,6.223,0,0,1-1.006.406l-.012,0,.012,0a6.225,6.225,0,0,1,1.006.406,6.644,6.644,0,0,1,1.748,1.249c.544.542.841,1.249,1.352,1.814C654.877,475.978,655.9,475.48,656.617,474.746Z" transform="translate(0 -170.134)" fill="none" stroke="#007168" stroke-width="0.5"/>
      <path id="Path_8806" data-name="Path 8806" d="M950.768,356.4a4.6,4.6,0,0,0,.179.725,1.155,1.155,0,0,1,.7-.165c.6.031,1.162.259,1.769.258a5.248,5.248,0,0,0,1.674-.278,4.922,4.922,0,0,0,.789-.335l.009,0,0,.009a4.93,4.93,0,0,0-.335.789,5.245,5.245,0,0,0-.278,1.674c0,.607.227,1.168.258,1.769a1.207,1.207,0,0,1-.115.617,4.617,4.617,0,0,0,.652.139l-.108-.575c1.025.013,2.1-.36,2.037-1.616-.039-.761-.328-1.471-.327-2.239a6.644,6.644,0,0,1,.353-2.119,6.216,6.216,0,0,1,.425-1l.006-.011-.011.006a6.235,6.235,0,0,1-1,.425,6.643,6.643,0,0,1-2.119.353c-.768,0-1.478-.288-2.239-.327-1.256-.065-1.629,1.012-1.616,2.037Z" transform="translate(-279.095 -64.797)" fill="none" stroke="#007168" stroke-width="0.5"/>
      <path id="Path_8807" data-name="Path 8807" d="M834.122,290.892l-.587.4a4.587,4.587,0,0,0,.638.387,1.155,1.155,0,0,1,.381-.614c.447-.4,1.005-.638,1.433-1.068a5.246,5.246,0,0,0,.987-1.381,4.919,4.919,0,0,0,.32-.795l0-.009,0,.009a4.919,4.919,0,0,0,.32.795,5.246,5.246,0,0,0,.987,1.381c.428.43.986.665,1.433,1.068a1.206,1.206,0,0,1,.355.518,4.625,4.625,0,0,0,.559-.363l-.483-.33c.734-.716,1.232-1.74.3-2.583-.566-.51-1.272-.808-1.814-1.352a6.64,6.64,0,0,1-1.249-1.748,6.222,6.222,0,0,1-.406-1.006l0-.012,0,.012a6.227,6.227,0,0,1-.406,1.006,6.643,6.643,0,0,1-1.249,1.748c-.542.544-1.249.842-1.815,1.352C832.89,289.152,833.388,290.176,834.122,290.892Z" transform="translate(-170.134)" fill="none" stroke="#007168" stroke-width="0.5"/>
      <path id="Path_8808" data-name="Path 8808" d="M959.644,591.718a6.641,6.641,0,0,1-.353-2.119c0-.768.288-1.478.327-2.239.065-1.256-1.012-1.629-2.037-1.616l.132-.7a4.6,4.6,0,0,0-.725.179,1.154,1.154,0,0,1,.165.7c-.031.6-.259,1.162-.258,1.769a5.247,5.247,0,0,0,.279,1.674,4.919,4.919,0,0,0,.335.789l0,.009-.009,0a4.915,4.915,0,0,0-.789-.336,5.25,5.25,0,0,0-1.674-.279c-.607,0-1.168.227-1.769.258a1.205,1.205,0,0,1-.617-.115,4.626,4.626,0,0,0-.139.652l.575-.108c-.013,1.025.36,2.1,1.616,2.037.761-.039,1.471-.328,2.239-.327a6.641,6.641,0,0,1,2.119.353,6.235,6.235,0,0,1,1,.425l.011.006-.006-.011A6.219,6.219,0,0,1,959.644,591.718Z" transform="translate(-280.718 -279.096)" fill="none" stroke="#007168" stroke-width="0.5"/>
      <path id="Path_8809" data-name="Path 8809" d="M727.449,591.988a4.6,4.6,0,0,0-.179-.725,1.155,1.155,0,0,1-.7.165c-.6-.031-1.162-.259-1.769-.258a5.246,5.246,0,0,0-1.674.279,4.913,4.913,0,0,0-.789.336l-.009,0,0-.009a4.916,4.916,0,0,0,.336-.789,5.247,5.247,0,0,0,.278-1.674c0-.607-.227-1.167-.258-1.769a1.2,1.2,0,0,1,.115-.617,4.619,4.619,0,0,0-.652-.139l.108.575c-1.025-.013-2.1.36-2.037,1.615.039.761.328,1.471.327,2.239a6.643,6.643,0,0,1-.353,2.119,6.217,6.217,0,0,1-.425,1l-.006.011.011-.006a6.236,6.236,0,0,1,1-.425,6.646,6.646,0,0,1,2.119-.353c.768,0,1.478.288,2.239.327,1.256.065,1.628-1.012,1.615-2.037Z" transform="translate(-64.797 -280.718)" fill="none" stroke="#007168" stroke-width="0.5"/>
      <path id="Path_8810" data-name="Path 8810" d="M1030.788,471.568a6.218,6.218,0,0,1-1.006-.406,6.64,6.64,0,0,1-1.748-1.249c-.544-.542-.842-1.249-1.352-1.814-.842-.934-1.867-.436-2.583.3l-.4-.587a4.581,4.581,0,0,0-.387.638,1.154,1.154,0,0,1,.614.381c.4.447.638,1.005,1.068,1.433a5.247,5.247,0,0,0,1.38.987,4.919,4.919,0,0,0,.795.32l.009,0-.009,0a4.924,4.924,0,0,0-.795.32,5.246,5.246,0,0,0-1.38.987c-.43.428-.665.986-1.068,1.433a1.2,1.2,0,0,1-.518.355,4.619,4.619,0,0,0,.362.559l.33-.483c.716.734,1.74,1.232,2.583.3.51-.566.808-1.272,1.352-1.814a6.642,6.642,0,0,1,1.748-1.249,6.221,6.221,0,0,1,1.006-.406l.012,0Z" transform="translate(-346.392 -170.134)" fill="none" stroke="#007168" stroke-width="0.5"/>
      <path id="Path_8811" data-name="Path 8811" d="M840.471,658.375l.587-.4a4.6,4.6,0,0,0-.638-.387,1.154,1.154,0,0,1-.381.614c-.447.4-1.005.638-1.433,1.068a5.247,5.247,0,0,0-.987,1.381,4.918,4.918,0,0,0-.32.795l0,.01,0-.01a4.918,4.918,0,0,0-.32-.795,5.247,5.247,0,0,0-.987-1.381c-.428-.43-.986-.665-1.433-1.068a1.205,1.205,0,0,1-.355-.518,4.63,4.63,0,0,0-.559.362l.483.33c-.734.716-1.232,1.74-.3,2.582.566.51,1.272.808,1.815,1.352a6.644,6.644,0,0,1,1.249,1.747,6.229,6.229,0,0,1,.406,1.006l0,.012,0-.012a6.223,6.223,0,0,1,.406-1.006,6.641,6.641,0,0,1,1.249-1.747c.542-.544,1.249-.842,1.814-1.352C841.7,660.115,841.206,659.09,840.471,658.375Z" transform="translate(-170.134 -346.392)" fill="none" stroke="#007168" stroke-width="0.5"/>
    </g>
    <text id="_1" data-name="1" transform="translate(51 158)" fill="#007168" font-size="14" font-family="Poppins-Regular, Poppins"><tspan x="-2" y="0">1</tspan></text>
  </g>
</svg>
