<svg id="Group_6856" data-name="Group 6856" xmlns="http://www.w3.org/2000/svg" width="23.09" height="23.097" viewBox="0 0 23.09 23.097">
  <path id="Path_657" data-name="Path 657" d="M-349.219,196.565h-1.444c-.148-.018-.3-.039-.443-.055a11.2,11.2,0,0,1-6.4-2.789,11.23,11.23,0,0,1-3.872-10.245,11.064,11.064,0,0,1,4.271-7.5,11.233,11.233,0,0,1,8.321-2.449,11.1,11.1,0,0,1,6.112,2.527,11.364,11.364,0,0,1,4.1,6.971c.076.42.119.846.178,1.269v1.444c-.035.282-.066.565-.105.846a11.358,11.358,0,0,1-2.807,6.083,11.365,11.365,0,0,1-6.626,3.719C-348.357,196.463-348.789,196.506-349.219,196.565Zm-.721-1.444a10.122,10.122,0,0,0,10.1-10.1,10.121,10.121,0,0,0-10.107-10.115,10.122,10.122,0,0,0-10.1,10.1A10.124,10.124,0,0,0-349.94,195.121Z" transform="translate(361.482 -173.469)" fill="#d3d3d3"/>
  <path id="Path_658" data-name="Path 658" d="M-328.148,186.832h1.437v.272q0,3.2,0,6.4a.524.524,0,0,0,.174.409q1.9,1.884,3.781,3.777c.052.052.1.107.137.144l-1.028,1.031c-.154-.162-.316-.34-.485-.51q-1.936-1.939-3.871-3.878a.489.489,0,0,1-.143-.3q-.012-3.6-.006-7.193C-328.155,186.941-328.151,186.9-328.148,186.832Z" transform="translate(338.974 -182.494)" fill="#d3d3d3"/>
</svg>
