<svg xmlns="http://www.w3.org/2000/svg" width="36.109" height="36.124" viewBox="0 0 36.109 36.124">
  <g id="Province_icon" data-name="Province icon" transform="translate(614.981 -275.971)">
    <path id="Path_8812" data-name="Path 8812" d="M-593.817,347.638c1.807,0,3.615.013,5.422-.009a.9.9,0,0,1,.939.567q4.237,8.511,8.5,17.011a2.333,2.333,0,0,1,.134.3.569.569,0,0,1-.455.762,2.431,2.431,0,0,1-.4.012h-34.327a2.874,2.874,0,0,1-.364-.007.573.573,0,0,1-.478-.8,3.125,3.125,0,0,1,.139-.3q4.241-8.487,8.476-16.976a.907.907,0,0,1,.937-.571c2.451.019,4.9.009,7.353.009h.406c.067-.263-.092-.345-.281-.423a5.707,5.707,0,0,1-3.508-4,5.826,5.826,0,0,1,4.257-7.064A5.843,5.843,0,0,1-590,340.509a5.844,5.844,0,0,1-3.5,6.7,2.045,2.045,0,0,0-.4.3Zm8.252,6.991c-.078-.167-.126-.276-.179-.383-.752-1.506-1.552-2.992-2.238-4.527a1.336,1.336,0,0,0-1.509-.939c-1.535.079-3.078.023-4.631.023-.036.13-.071.244-.1.359q-.439,1.894-.876,3.788a.572.572,0,0,1-.576.507.57.57,0,0,1-.585-.5c-.029-.117-.053-.236-.081-.354l-.877-3.781h-1.375v.417c0,1.322-.01,2.645.007,3.967a1.1,1.1,0,0,1-.365.864c-.876.856-1.737,1.728-2.6,2.6-.091.092-.177.189-.235.25l2.652,2.656c.071-.067.169-.155.262-.247,1.433-1.432,2.872-2.858,4.292-4.3a1.261,1.261,0,0,1,.994-.4c1.965.017,3.93.008,5.9.008Zm-10.156-4.538.09-.008c.241-1.038.495-2.072.716-3.114a.9.9,0,0,1,.687-.742,4.636,4.636,0,0,0,3.15-5.123,4.673,4.673,0,0,0-4.323-3.946,4.684,4.684,0,0,0-4.794,3.509,4.505,4.505,0,0,0,2.532,5.308,2.061,2.061,0,0,1,1.419,1.835C-596.124,348.579-595.9,349.331-595.722,350.091Zm11.331,6.868c-.159-.321-.305-.573-.411-.84a.468.468,0,0,0-.516-.332q-4.022.017-8.045,0a.729.729,0,0,0-.568.241q-2.321,2.338-4.655,4.662c-.472.472-.706.47-1.185-.009q-1.583-1.582-3.165-3.167c-.429-.429-.43-.682-.008-1.106.985-.988,1.978-1.969,2.952-2.968a.848.848,0,0,0,.225-.526c.019-1.25.01-2.5.01-3.749v-.346h-1.165v.372c0,.983.015,1.966-.011,2.948a1.042,1.042,0,0,1-.249.643c-.9.936-1.824,1.847-2.746,2.761a.6.6,0,0,1-.977,0q-.8-.792-1.6-1.6c-.278-.284-.539-.585-.838-.912l-.67,1.341a2.342,2.342,0,0,1,.31.227q2.051,2.042,4.095,4.09c.477.478.478.712,0,1.186l-4.916,4.917c-.087.087-.17.178-.3.318.574,0,1.06.018,1.542-.01a.831.831,0,0,0,.5-.212c1.374-1.354,2.734-2.723,4.1-4.086.479-.479.71-.479,1.185,0q2.047,2.045,4.1,4.09c.09.089.207.208.315.212.551.022,1.1.01,1.724.01-.131-.141-.207-.229-.29-.311q-1.028-1.031-2.058-2.06c-.408-.41-.409-.671,0-1.08q2.2-2.2,4.4-4.4a.964.964,0,0,1,.743-.3c2.16.008,4.319,0,6.479,0Zm2.879,5.825a1.1,1.1,0,0,0-.047-.167c-.714-1.431-1.425-2.864-2.156-4.286a.519.519,0,0,0-.4-.2q-4.058-.017-8.116,0a.787.787,0,0,0-.5.207c-1.229,1.207-2.444,2.429-3.661,3.648-.066.066-.124.14-.2.228.889.89,1.768,1.758,2.632,2.641a.8.8,0,0,0,.632.263q6.3-.012,12.593-.006h.416c-.156-.312-.307-.572-.417-.849a.468.468,0,0,0-.521-.322q-6.115.014-12.229.006h-.426v-1.165c.352,0,.679-.018,1,.006a.524.524,0,0,0,.57-.319c.6-1.083,1.221-2.149,1.829-3.226.148-.262.3-.512.64-.516.363,0,.517.258.668.532.235.428.484.849.729,1.277a1.055,1.055,0,0,0,.1-.072l.85-.848c.476-.474.8-.447,1.171.1.627.937,1.248,1.878,1.882,2.811.072.106.206.239.314.241C-583.277,362.793-582.407,362.785-581.512,362.785Zm-31.867,2.331c.891,0,1.722-.007,2.553,0a.719.719,0,0,0,.573-.229q2.665-2.685,5.345-5.355c.075-.075.143-.157.194-.212l-3.848-3.842Zm6.61-13.221,2.421,2.428c.491-.493.98-1.055,1.543-1.53a1.876,1.876,0,0,0,.732-1.758c-.069-.729-.015-1.47-.015-2.231-1.024,0-2,0-2.984.008a.34.34,0,0,0-.234.172C-605.811,349.975-606.307,350.972-606.768,351.895Zm7.8,13.213-3.085-3.093-3.11,3.093Zm9.115-4.642-1.307,2.291h2.618Zm4.154,2.319-1.347-2.022c-.235.251-.423.475-.636.671a.278.278,0,0,0-.05.405c.515.945.511.947,1.58.946Z" transform="translate(-0.079 -54.186)" fill="#fff"/>
    <path id="Path_8813" data-name="Path 8813" d="M-610.322,278.3c0-.585,0-1.118,0-1.65,0-.457.216-.674.665-.678q1.074-.01,2.147,0c.47,0,.677.219.681.7,0,.531,0,1.061,0,1.629.9,0,1.774.017,2.643-.007a.911.911,0,0,1,.9.474c.288.477.6.94.926,1.393a.715.715,0,0,1,.007.931c-.337.474-.659.96-.968,1.452a.822.822,0,0,1-.781.423c-.9-.016-1.79-.005-2.706-.005v1.165h.37c1.177,0,2.354,0,3.53,0a.659.659,0,0,1,.673.331.651.651,0,0,1-.12.71c-.238.351-.459.715-.711,1.055a.347.347,0,0,0,.008.48,9.354,9.354,0,0,1,.718,1.093,1.01,1.01,0,0,1,.085.67c-.073.273-.352.326-.627.325-1.3,0-2.594,0-3.947,0v.4q0,2.329,0,4.658c0,.574-.193.768-.759.77q-.964,0-1.929,0c-.624,0-.807-.18-.807-.794q0-2.293,0-4.586v-.446h-.441c-.789,0-1.578.024-2.365-.016a.95.95,0,0,1-.628-.329c-.392-.507-.722-1.062-1.083-1.593a.628.628,0,0,1-.007-.775q.541-.8,1.068-1.6a.725.725,0,0,1,.672-.347c.909.008,1.818,0,2.756,0v-1.165h-.38c-1.177,0-2.354,0-3.53,0a.655.655,0,0,1-.647-.315.627.627,0,0,1,.1-.71c.245-.361.476-.732.731-1.086a.329.329,0,0,0,0-.45,9.75,9.75,0,0,1-.737-1.124.822.822,0,0,1-.062-.659.791.791,0,0,1,.591-.305c1.176-.028,2.353-.014,3.53-.014Zm-2.976,3.478c.127.009.2.017.263.017,2.85,0,5.7,0,8.551-.009a.581.581,0,0,0,.4-.217c.224-.3.555-.623.563-.944.007-.3-.361-.6-.533-.919a.481.481,0,0,0-.508-.244q-4.185.008-8.369,0c-.1,0-.205.01-.363.018.182.273.328.507.489.731a.653.653,0,0,1,0,.838C-612.973,281.281-613.12,281.513-613.3,281.782Zm9.449,3.53c-.128-.008-.2-.016-.265-.016-2.851,0-5.7,0-8.553.009a.581.581,0,0,0-.4.22c-.223.3-.554.624-.561.944-.007.3.358.6.537.918a.463.463,0,0,0,.472.243q4.222-.01,8.444-.005c.09,0,.179-.01.322-.018l-.41-.614c-.327-.492-.326-.574.009-1.077Zm-4.16,3.5h-1.124v4.611h1.124Zm-.007-10.526v-1.12h-1.123v1.12Zm0,5.836v-1.131h-1.112v1.131Z" transform="translate(0)" fill="#fff"/>
    <path id="Path_8814" data-name="Path 8814" d="M-416.8,360.148a3.439,3.439,0,0,1,3.441,3.463h-1.1a2.4,2.4,0,0,0-2.336-2.331Z" transform="translate(-178.941 -76.003)" fill="#fff"/>
    <path id="Path_8815" data-name="Path 8815" d="M-401.516,405.815l1.084.478-1.125,1.428-.716-.954Z" transform="translate(-192.055 -117.236)" fill="#fff"/>
    <path id="Path_8816" data-name="Path 8816" d="M-541.587,318.26v1.121h-1.12V318.26Z" transform="translate(-65.257 -38.182)" fill="#fff"/>
    <path id="Path_8817" data-name="Path 8817" d="M-518.855,319.368v-1.124h1.131v1.124Z" transform="translate(-86.793 -38.168)" fill="#fff"/>
    <path id="Path_8818" data-name="Path 8818" d="M-589.654,379.333h-1.113V378.2h1.113Z" transform="translate(-21.863 -92.303)" fill="#fff"/>
    <path id="Path_8819" data-name="Path 8819" d="M-565.662,379.323h-1.115V378.19h1.115Z" transform="translate(-43.524 -92.293)" fill="#fff"/>
  </g>
</svg>
