<svg xmlns="http://www.w3.org/2000/svg" width="25.18" height="25.203" viewBox="0 0 25.18 25.203">
  <g id="Group_7254" data-name="Group 7254" transform="translate(-786 -972)">
    <g id="Group_85" data-name="Group 85" transform="translate(786 972)">
      <path id="Path_654" data-name="Path 654" d="M-468.963,252.225a13.127,13.127,0,0,1-3.606-.521c-4.85-1.382-7.869-4.744-8.974-9.99-.071-.335-.109-.666-.146-.985-.016-.138-.032-.277-.051-.414l-.007-.1.033-1.709c.007-.031.014-.061.02-.093.032-.2.061-.392.089-.588.064-.441.129-.9.241-1.354a12.43,12.43,0,0,1,3.595-6.06,11.958,11.958,0,0,1,6.5-3.195c.355-.058.71-.1,1.052-.134l.464-.053.09-.006,1.132.009.1.017a.861.861,0,0,0,.1.016,12.309,12.309,0,0,1,5.38,1.562,12.549,12.549,0,0,1,6.191,13.009,12.448,12.448,0,0,1-4.519,7.782A12.1,12.1,0,0,1-468.963,252.225Zm-11.286-12.062c.017.13.033.261.048.392.035.3.068.581.124.85.981,4.661,3.645,7.641,7.918,8.859a10.506,10.506,0,0,0,9.941-2.014,10.992,10.992,0,0,0,3.982-6.874,11.045,11.045,0,0,0-5.457-11.447,10.813,10.813,0,0,0-4.731-1.369,2.325,2.325,0,0,1-.273-.036l-.017,0h-.91l-.435.05c-.339.037-.659.072-.978.124a10.491,10.491,0,0,0-5.7,2.8,10.808,10.808,0,0,0-3.176,5.335c-.095.385-.152.787-.214,1.211-.03.207-.06.413-.094.619-.009.053-.02.106-.032.159Z" transform="translate(481.747 -227.022)" fill="#007168"/>
    </g>
    <g id="Group_86" data-name="Group 86" transform="translate(792 978)">
      <path id="Path_655" data-name="Path 655" d="M-451.038,246.294a.941.941,0,0,1,.871,1.294q-.57,1.793-1.15,3.582c-.441,1.37-.889,2.736-1.319,4.109a1.1,1.1,0,0,1-.768.784q-3.869,1.236-7.734,2.484a.907.907,0,0,1-.983-.208.915.915,0,0,1-.217-1q1.253-3.888,2.5-7.778a1.015,1.015,0,0,1,.707-.7q3.846-1.231,7.691-2.468C-451.306,246.354-451.171,246.328-451.038,246.294Zm-1.422,2.383c-.067.017-.1.022-.124.031-1.816.583-3.631,1.169-5.449,1.746a.344.344,0,0,0-.236.276q-.849,2.647-1.7,5.294c-.02.062-.033.125-.053.2a.8.8,0,0,0,.115-.016q2.735-.878,5.467-1.763a.351.351,0,0,0,.182-.2c.154-.443.294-.891.438-1.337Z" transform="translate(462.399 -246.294)" fill="#007168"/>
    </g>
    <g id="Group_87" data-name="Group 87" transform="translate(798 984)">
      <path id="Path_656" data-name="Path 656" d="M-445.778,262.06a.9.9,0,0,1,.93.934.934.934,0,0,1-.918.91.934.934,0,0,1-.93-.922A.9.9,0,0,1-445.778,262.06Z" transform="translate(446.696 -262.06)" fill="#007168"/>
    </g>
  </g>
</svg>
