<svg id="Quibla_icon" data-name="Quibla icon" xmlns="http://www.w3.org/2000/svg" width="25.18" height="25.203" viewBox="0 0 25.18 25.203">
  <path id="Path_654" data-name="Path 654" d="M-468.963,252.225a13.127,13.127,0,0,1-3.606-.521c-4.85-1.382-7.869-4.744-8.974-9.99-.071-.335-.109-.666-.146-.985-.016-.138-.032-.277-.051-.414l-.007-.1.033-1.709c.007-.031.014-.061.02-.093.032-.2.061-.392.089-.588.064-.441.129-.9.241-1.354a12.43,12.43,0,0,1,3.595-6.06,11.958,11.958,0,0,1,6.5-3.195c.355-.058.71-.1,1.052-.134l.464-.053.09-.006,1.132.009.1.017a.861.861,0,0,0,.1.016,12.309,12.309,0,0,1,5.38,1.562,12.549,12.549,0,0,1,6.191,13.009,12.448,12.448,0,0,1-4.519,7.782A12.1,12.1,0,0,1-468.963,252.225Zm-11.286-12.062c.017.13.033.261.048.392.035.3.068.581.124.85.981,4.661,3.645,7.641,7.918,8.859a10.506,10.506,0,0,0,9.941-2.014,10.992,10.992,0,0,0,3.982-6.874,11.045,11.045,0,0,0-5.457-11.447,10.813,10.813,0,0,0-4.731-1.369,2.325,2.325,0,0,1-.273-.036l-.017,0h-.91l-.435.05c-.339.037-.659.072-.978.124a10.491,10.491,0,0,0-5.7,2.8,10.808,10.808,0,0,0-3.176,5.335c-.095.385-.152.787-.214,1.211-.03.207-.06.413-.094.619-.009.053-.02.106-.032.159Z" transform="translate(481.747 -227.022)" fill="#007168"/>
</svg>
